<svg xmlns="http://www.w3.org/2000/svg" xmlns:xlink="http://www.w3.org/1999/xlink" width="1024" zoomAndPan="magnify" viewBox="0 0 768 767.999994" height="1024" preserveAspectRatio="xMidYMid meet" version="1.0"><defs><g/><clipPath id="af3107ffce"><path d="M 221 317.59375 L 314 317.59375 L 314 443 L 221 443 Z M 221 317.59375 " clip-rule="nonzero"/></clipPath><clipPath id="394fbf0c9e"><path d="M 217 388 L 338.359375 388 L 338.359375 448.84375 L 217 448.84375 Z M 217 388 " clip-rule="nonzero"/></clipPath><clipPath id="d1a3f4848c"><path d="M 338.128906 428 L 521.878906 428 L 521.878906 439 L 338.128906 439 Z M 338.128906 428 " clip-rule="nonzero"/></clipPath></defs><path fill="#f29f02" d="M 326.394531 362.316406 C 325.496094 362.316406 327.265625 440.785156 326.394531 441.652344 C 326.21875 441.828125 321.351562 441.933594 313.699219 441.988281 C 300.40625 427.273438 294.738281 442.046875 282.882812 442.023438 C 249.933594 441.953125 210.316406 441.652344 210.316406 441.652344 C 210.316406 441.652344 210.316406 379.839844 210.546875 379.378906 C 235.394531 342.632812 327.292969 362.316406 326.394531 362.316406 Z M 326.394531 362.316406 " fill-opacity="1" fill-rule="nonzero"/><g clip-path="url(#af3107ffce)"><path fill="#5ba698" d="M 310.59375 339.183594 C 310.628906 339.058594 310.664062 338.953125 310.691406 338.910156 C 310.65625 338.941406 310.621094 338.972656 310.59375 339.011719 C 310.59375 338.46875 310.59375 337.925781 310.59375 337.382812 C 310.613281 337.402344 310.636719 337.402344 310.660156 337.417969 L 310.601562 336.757812 L 310.589844 336.785156 C 310.589844 335.941406 310.589844 335.105469 310.589844 334.289062 C 310.714844 334.226562 310.851562 334.082031 310.949219 333.914062 C 310.902344 333.902344 310.859375 333.902344 310.792969 333.496094 C 310.742188 333.621094 310.671875 334.210938 310.589844 334.136719 C 310.589844 333.929688 310.589844 333.726562 310.589844 333.523438 C 310.609375 333.480469 310.628906 333.433594 310.648438 333.351562 C 310.628906 333.386719 310.609375 333.390625 310.589844 333.378906 C 310.589844 332.730469 310.589844 332.101562 310.589844 331.503906 L 310.703125 331.113281 C 310.789062 331.523438 310.96875 332.027344 310.914062 332.535156 C 311.082031 332.304688 310.894531 332.421875 311.089844 332.058594 C 310.847656 332.371094 311.101562 330.753906 310.84375 331.257812 C 311.070312 330.886719 310.941406 330.617188 311.132812 330.132812 C 311.078125 330.148438 311.027344 330.304688 311.054688 329.878906 C 311.039062 329.859375 311.019531 329.8125 311.007812 329.785156 C 311.011719 329.769531 311.011719 329.765625 311.011719 329.753906 C 311.011719 329.761719 311.007812 329.769531 311.007812 329.777344 C 311 329.757812 310.996094 329.757812 311.003906 329.785156 C 310.980469 329.890625 310.949219 329.96875 310.921875 330.003906 C 310.789062 329.792969 310.796875 329.113281 310.726562 328.882812 C 310.753906 328.628906 310.792969 328.988281 310.851562 328.851562 L 310.753906 328.507812 C 310.875 328.472656 310.957031 327.832031 311.03125 328.429688 L 311.035156 327.894531 C 311.109375 327.574219 311.132812 327.148438 311.085938 326.882812 C 311.117188 326.632812 310.957031 326.242188 311.050781 326.464844 L 310.980469 325.617188 L 311.011719 325.609375 C 311.027344 324.761719 310.804688 323.878906 310.902344 322.855469 C 310.832031 322.566406 310.746094 322.265625 310.652344 321.761719 L 310.730469 321.632812 C 310.660156 321.445312 310.59375 321.148438 310.496094 320.878906 C 310.402344 320.609375 310.289062 320.371094 310.191406 320.324219 C 310.210938 320.054688 309.925781 319.574219 309.492188 319.179688 C 309.0625 318.777344 308.507812 318.5 308.179688 318.316406 L 308.09375 318.433594 C 307.636719 318.210938 307.164062 318.105469 306.570312 318.050781 L 306.582031 318.179688 C 306.457031 318.175781 306.3125 318.160156 306.160156 318.140625 C 306.007812 318.113281 305.84375 318.082031 305.664062 318.050781 C 305.320312 317.984375 304.921875 317.933594 304.550781 317.9375 C 304.601562 317.886719 304.789062 317.902344 304.929688 317.9375 C 304.027344 317.648438 303.066406 318.136719 302.257812 317.929688 C 302.0625 317.976562 301.914062 317.960938 301.777344 317.929688 C 301.796875 317.929688 301.8125 317.925781 301.824219 317.921875 C 301.804688 317.921875 301.773438 317.921875 301.742188 317.921875 C 301.65625 317.898438 301.566406 317.875 301.46875 317.855469 C 301.550781 317.886719 301.628906 317.910156 301.699219 317.921875 C 301.546875 317.925781 301.3125 317.941406 301.085938 317.972656 L 300.992188 317.839844 C 300.972656 317.839844 300.960938 317.839844 300.941406 317.839844 C 300.714844 317.792969 300.761719 317.902344 300.882812 318.003906 C 300.765625 318.027344 300.660156 318.054688 300.578125 318.085938 C 300.398438 317.867188 299.980469 318.160156 299.730469 317.929688 C 299.59375 318.027344 298.769531 318.019531 298.519531 318.1875 C 298.46875 318.1875 298.417969 318.1875 298.367188 318.1875 C 298.210938 318.175781 298.058594 318.167969 297.910156 318.1875 C 297.859375 318.1875 297.808594 318.1875 297.753906 318.1875 L 297.660156 318.042969 L 297.3125 318.1875 C 297.164062 318.1875 297.015625 318.1875 296.863281 318.1875 C 296.730469 318.125 296.726562 318.070312 296.964844 317.980469 C 296.265625 318.152344 296.28125 318.085938 295.863281 318.1875 C 295.789062 318.1875 295.714844 318.1875 295.640625 318.1875 L 295.652344 318.144531 C 295.5625 318.148438 295.453125 318.167969 295.339844 318.1875 C 295.164062 318.1875 294.988281 318.1875 294.808594 318.1875 C 294.179688 318.007812 292.097656 318.167969 290.726562 317.984375 C 291 318.304688 290.070312 317.839844 290.011719 318.089844 C 289.929688 318.011719 289.730469 317.96875 289.960938 317.902344 C 289.238281 317.976562 288.875 317.78125 288.378906 317.992188 C 288.296875 317.914062 288.53125 317.878906 288.460938 317.832031 C 288.402344 317.851562 288.230469 317.902344 288.15625 317.855469 C 288.082031 317.808594 288.261719 317.789062 288.375 317.757812 C 287.679688 317.769531 287.574219 317.980469 287.519531 318.1875 C 287.464844 318.1875 287.40625 318.1875 287.351562 318.1875 C 287.175781 318.148438 287.042969 318.148438 286.910156 318.1875 C 286.78125 318.1875 286.652344 318.1875 286.523438 318.1875 C 286.492188 318.152344 286.539062 318.125 286.792969 318.109375 C 286.535156 318.097656 285.21875 318.003906 285.191406 318.179688 C 285.109375 318.132812 284.832031 318.167969 284.761719 318.1875 C 284.183594 318.175781 284.132812 318.160156 283.566406 318.175781 L 283.625 318.1875 C 282.933594 318.1875 282.230469 318.1875 281.523438 318.1875 C 281.460938 318.179688 281.394531 318.167969 281.316406 318.15625 L 281.332031 318.1875 C 280.742188 318.1875 280.144531 318.1875 279.546875 318.1875 C 279.285156 318.066406 279.015625 317.902344 278.824219 317.878906 C 278.753906 317.855469 278.9375 317.839844 279.039062 317.820312 C 278.175781 317.652344 278.929688 317.992188 278.285156 318.035156 C 278.164062 317.9375 278.4375 317.796875 278.003906 317.777344 C 277.792969 317.699219 276.75 318.082031 276.160156 317.902344 C 276.292969 317.972656 276.421875 318.042969 276.121094 318.101562 C 275.664062 318.128906 274.886719 317.828125 274.472656 318.054688 C 274.414062 318.035156 274.390625 318.019531 274.390625 318 C 274.074219 318.050781 273.414062 318.089844 273.128906 318.183594 C 273.085938 318.183594 273.042969 318.183594 273.003906 318.183594 C 272.601562 317.804688 270.867188 318.433594 270.875 318.019531 L 269.796875 318.042969 L 269.824219 318 C 269.136719 317.972656 268.894531 318.070312 268.652344 318.175781 C 268.492188 318.144531 268.609375 318.105469 268.621094 318.085938 C 267.691406 318.007812 267.535156 318.015625 266.847656 318.183594 C 266.777344 318.183594 266.714844 318.183594 266.644531 318.183594 L 266.585938 318.089844 C 266.359375 318.171875 265.132812 317.875 264.148438 318.035156 C 264.15625 318.019531 264.175781 317.992188 264.253906 317.972656 C 263.144531 318.136719 261.601562 317.59375 261.191406 318.09375 L 260.644531 318.183594 C 260.242188 318.183594 259.839844 318.183594 259.4375 318.183594 C 259.253906 318.175781 259.113281 318.152344 259.121094 318.097656 C 257.257812 318.109375 255.441406 317.964844 253.699219 317.953125 L 253.898438 318.15625 L 253.289062 318.144531 C 253.132812 318.097656 253.078125 317.984375 253.511719 317.996094 C 253.28125 317.882812 252.78125 318.09375 252.769531 318.136719 C 251.917969 318.054688 253.101562 317.902344 252.839844 317.894531 L 252.484375 317.914062 L 252.5625 317.9375 C 252.277344 318.019531 252.253906 318.105469 251.726562 318.097656 C 251.398438 318.054688 251.558594 317.972656 251.429688 317.964844 C 251.429688 317.949219 251.386719 317.941406 251.230469 317.957031 L 250.460938 317.941406 L 250.769531 318.101562 C 250.503906 318.164062 250.210938 318.125 250.269531 318.191406 C 250.222656 318.191406 250.179688 318.191406 250.132812 318.191406 C 249.335938 318.035156 247.5 318.164062 247.21875 318.089844 C 246.917969 318.160156 246.613281 318.183594 246.285156 318.191406 C 246.152344 318.191406 246.015625 318.191406 245.882812 318.191406 C 245.820312 318.191406 245.757812 318.1875 245.691406 318.1875 C 245.695312 318.1875 245.699219 318.191406 245.699219 318.191406 C 245.582031 318.191406 245.460938 318.191406 245.34375 318.191406 C 245.085938 318.085938 244.398438 318.148438 244.09375 317.949219 C 244.425781 318.113281 242.960938 318.015625 243.144531 318.191406 C 243.109375 318.191406 243.070312 318.191406 243.03125 318.191406 C 243.003906 318.140625 243.101562 318.078125 242.894531 318.019531 C 241.894531 318.164062 240.695312 317.925781 239.460938 317.972656 C 239.441406 318.023438 239.648438 318.097656 239.386719 318.167969 L 238.734375 317.925781 C 238.492188 317.949219 238.511719 318.207031 238.066406 318.035156 C 238.128906 318.078125 238.222656 318.140625 238.058594 318.15625 C 235.644531 317.917969 233.121094 318.351562 230.671875 317.902344 C 231 318 230.78125 318.007812 230.527344 318.011719 C 230.683594 318.035156 230.539062 318.125 230.554688 318.191406 C 230.539062 318.191406 230.519531 318.191406 230.507812 318.191406 L 229.527344 318.015625 C 229.347656 318.195312 228.480469 318.035156 228.332031 318.191406 C 228.238281 318.191406 228.160156 318.191406 228.101562 318.191406 C 224.347656 318.191406 221.039062 319.207031 221.039062 322.734375 C 221.039062 325.480469 221.039062 346.492188 221.039062 346.492188 C 225.371094 354.414062 310.59375 349.011719 310.59375 349.011719 C 310.59375 349.011719 310.59375 344.3125 310.59375 339.183594 Z M 310.960938 327.484375 C 310.957031 327.476562 310.957031 327.472656 310.957031 327.46875 C 311.007812 327.175781 310.988281 327.277344 310.960938 327.484375 Z M 251.359375 318.011719 L 251.480469 318.046875 C 251.207031 318.085938 251.285156 318.050781 251.359375 318.011719 Z M 310.71875 330.804688 L 310.59375 330.882812 C 310.59375 330.855469 310.59375 330.828125 310.59375 330.800781 C 310.621094 330.679688 310.628906 330.480469 310.59375 330.375 C 310.613281 330.4375 310.609375 330.53125 310.59375 330.632812 C 310.59375 330.542969 310.59375 330.457031 310.59375 330.367188 C 310.59375 330.371094 310.59375 330.371094 310.59375 330.371094 C 310.59375 330.367188 310.59375 330.367188 310.59375 330.367188 C 310.59375 330.058594 310.59375 329.765625 310.59375 329.484375 C 310.675781 329.859375 310.777344 330.285156 310.71875 330.804688 Z M 310.78125 327.453125 C 310.71875 327.632812 310.652344 327.660156 310.59375 327.640625 C 310.59375 327.433594 310.59375 327.242188 310.59375 327.074219 C 310.59375 326.746094 310.59375 326.410156 310.601562 326.074219 C 310.699219 326.59375 310.914062 326.691406 310.78125 327.453125 Z M 310.675781 324.953125 C 310.710938 325.347656 310.65625 325.378906 310.609375 325.359375 C 310.609375 325.097656 310.609375 324.832031 310.609375 324.570312 C 310.632812 324.691406 310.65625 324.820312 310.675781 324.953125 Z M 304.421875 318.140625 C 304.398438 318.15625 304.371094 318.171875 304.34375 318.191406 C 304.28125 318.191406 304.21875 318.191406 304.148438 318.191406 Z M 303.683594 318.152344 L 303.738281 318.1875 C 303.675781 318.1875 303.605469 318.1875 303.535156 318.1875 C 303.582031 318.175781 303.632812 318.160156 303.683594 318.152344 Z M 228.644531 318.167969 C 228.628906 318.175781 228.621094 318.183594 228.613281 318.1875 C 228.558594 318.1875 228.503906 318.1875 228.453125 318.1875 Z M 313.699219 441.988281 C 305.726562 442.046875 294.734375 442.046875 282.878906 442.023438 C 282.878906 442.023438 283.089844 387.429688 282.878906 387.429688 C 282.667969 387.429688 312.882812 387.613281 313.65625 387.988281 C 314.308594 388.304688 313.851562 429.550781 313.699219 441.988281 Z M 310.992188 349.238281 C 310.960938 349.25 311.089844 349.097656 311.117188 349.371094 C 311.097656 349.34375 310.980469 349.402344 310.992188 349.238281 Z M 310.726562 346.535156 L 310.65625 346.179688 L 310.773438 346.578125 Z M 310.804688 345.648438 L 310.644531 345.445312 L 310.691406 345.371094 C 310.761719 344.921875 310.53125 344.242188 310.726562 344.003906 C 310.671875 344.386719 310.777344 345.097656 310.804688 345.648438 Z M 311.132812 342.96875 C 311.089844 342.363281 311.078125 342.738281 311.15625 342.65625 C 311.152344 342.78125 311.152344 342.859375 311.152344 342.910156 C 311.144531 342.929688 311.140625 342.9375 311.132812 342.96875 Z M 311.152344 342.910156 C 311.214844 342.734375 311.160156 343.175781 311.152344 342.910156 Z M 311.179688 342.03125 L 311.109375 341.679688 C 311.1875 341.472656 311.230469 341.402344 311.265625 341.761719 C 311.230469 341.644531 311.222656 341.957031 311.179688 342.03125 Z M 310.992188 341.527344 L 310.964844 341.347656 C 311.019531 341.449219 311.011719 341.496094 310.992188 341.527344 Z M 310.992188 341.527344 L 311.054688 341.914062 C 311.015625 341.75 310.957031 341.675781 311.019531 341.707031 C 310.894531 341.585938 310.960938 341.578125 310.992188 341.527344 Z M 310.886719 342.230469 C 310.953125 342.585938 310.980469 342.328125 311.023438 342.132812 C 311.050781 342.804688 310.914062 342.902344 310.886719 342.230469 Z M 311.09375 339.894531 L 311.046875 339.636719 C 311.097656 339.609375 311.167969 339.472656 311.210938 339.492188 C 311.148438 339.507812 311.121094 339.761719 311.09375 339.894531 Z M 310.972656 339.25 L 311.046875 339.636719 C 311 339.65625 310.964844 339.597656 310.972656 339.25 Z M 310.894531 341.921875 L 310.742188 341.285156 L 310.742188 341.164062 Z M 311.3125 338.230469 L 311.214844 338.011719 L 311.167969 337.84375 Z M 311.242188 336.277344 C 311.304688 336.484375 311.375 336.710938 311.386719 336.976562 C 311.339844 336.804688 311.28125 337.191406 311.199219 337.03125 C 311.265625 336.726562 311.273438 336.492188 311.242188 336.277344 Z M 311.148438 335.929688 C 311.195312 336.042969 311.222656 336.160156 311.242188 336.273438 C 311.203125 336.152344 311.167969 336.042969 311.148438 335.929688 Z M 310.992188 338.589844 C 310.992188 338.535156 310.992188 338.484375 310.996094 338.4375 L 311.117188 338.285156 C 311.085938 338.5 311.019531 338.558594 310.992188 338.589844 Z M 311 338.105469 C 311 338.152344 311 338.269531 310.996094 338.433594 L 310.992188 338.441406 C 310.996094 338.246094 311 338.148438 311 338.105469 Z M 310.992188 338.589844 C 310.992188 338.601562 310.992188 338.613281 310.992188 338.625 C 310.976562 338.609375 310.980469 338.601562 310.992188 338.589844 Z M 310.851562 340.265625 C 310.75 339.921875 310.691406 340.1875 310.609375 340.023438 C 310.714844 339.5625 310.785156 340.039062 310.851562 340.265625 Z M 310.816406 339.226562 L 310.84375 338.816406 L 310.929688 339.261719 C 310.894531 339.148438 310.847656 339.21875 310.816406 339.226562 Z M 310.851562 338.660156 L 310.839844 338.8125 L 310.804688 338.609375 Z M 310.9375 336.757812 C 310.9375 336.523438 310.949219 336.28125 310.972656 336.042969 C 310.980469 336.265625 310.984375 336.457031 311.035156 336.636719 C 311.042969 336.890625 310.972656 336.789062 310.9375 336.757812 Z M 310.996094 337.472656 C 311 337.484375 311 337.5 311.003906 337.515625 C 310.984375 337.515625 310.988281 337.5 310.996094 337.472656 Z M 310.972656 333.921875 L 310.953125 333.914062 L 310.972656 333.878906 Z M 310.9375 336.757812 C 310.9375 336.90625 310.945312 337.046875 310.957031 337.179688 C 310.921875 337.078125 310.894531 336.972656 310.914062 336.792969 C 310.910156 336.738281 310.921875 336.742188 310.9375 336.757812 Z M 311.027344 335.636719 C 311.046875 335.523438 311.066406 335.421875 311.089844 335.328125 C 311.125 335.359375 311.0625 335.542969 311.027344 335.636719 Z M 311.035156 337.441406 C 311.03125 337.429688 311.03125 337.421875 311.027344 337.414062 C 311.046875 337.390625 311.0625 337.382812 311.035156 337.441406 Z M 310.996094 337.472656 C 310.980469 337.386719 310.964844 337.285156 310.957031 337.179688 C 310.984375 337.25 311.011719 337.320312 311.027344 337.414062 C 311.019531 337.429688 311.003906 337.453125 310.996094 337.472656 Z M 310.957031 334.75 L 310.972656 333.921875 C 311.011719 333.941406 311.054688 334 311.105469 334.277344 C 311.019531 334.527344 310.972656 334.667969 310.957031 334.855469 L 310.941406 334.6875 Z M 310.957031 334.859375 L 311.019531 335.65625 C 311.011719 335.65625 311.007812 335.648438 311 335.648438 C 310.984375 335.574219 310.976562 335.382812 310.953125 335.613281 C 310.964844 335.628906 310.984375 335.640625 311 335.648438 C 311 335.652344 311 335.660156 311 335.664062 C 310.992188 335.699219 311 335.691406 311.019531 335.65625 L 311.019531 335.652344 C 311.023438 335.648438 311.027344 335.640625 311.027344 335.632812 C 311.007812 335.761719 310.988281 335.902344 310.972656 336.042969 C 310.96875 335.910156 310.964844 335.769531 310.941406 335.617188 C 310.875 336.191406 310.777344 335.167969 310.804688 335.964844 C 310.753906 335.667969 310.664062 335.816406 310.65625 335.324219 C 310.785156 335.078125 310.832031 335.480469 310.957031 335.613281 C 310.941406 335.238281 310.9375 335.027344 310.957031 334.859375 Z M 310.71875 338.882812 C 310.707031 338.890625 310.699219 338.898438 310.691406 338.910156 C 310.703125 338.882812 310.714844 338.875 310.71875 338.882812 Z M 310.980469 333.507812 L 311.160156 333.890625 L 311.03125 333.804688 Z M 311.0625 332.746094 L 311.125 332.976562 L 311.015625 332.941406 Z M 300.992188 317.839844 L 300.90625 317.71875 C 300.871094 317.59375 301.1875 317.753906 301.472656 317.859375 C 301.34375 317.832031 301.191406 317.816406 300.992188 317.839844 Z M 310.996094 323.464844 C 311.003906 323.640625 311 323.847656 310.964844 324.101562 C 310.859375 324.027344 310.953125 323.777344 310.996094 323.464844 Z M 274.382812 318 C 274.382812 317.972656 274.429688 317.949219 274.550781 317.929688 C 274.578125 317.957031 274.507812 317.984375 274.382812 318 Z M 310.996094 323.464844 C 310.984375 323.234375 310.949219 323.042969 310.902344 322.855469 C 310.902344 322.808594 310.902344 322.761719 310.914062 322.714844 C 311.03125 322.960938 311.027344 323.230469 310.996094 323.464844 Z M 230.523438 318.007812 C 230.402344 318.011719 230.269531 318.011719 230.191406 318.019531 C 230.363281 318.003906 230.464844 318 230.523438 318.007812 Z M 311.070312 329.484375 C 311.082031 329.511719 311.078125 329.664062 311.070312 329.484375 Z M 311.050781 329.523438 C 311.042969 329.609375 311.027344 329.6875 311.015625 329.757812 C 311.03125 329.632812 311.042969 329.5625 311.050781 329.523438 Z M 311.0625 329.878906 C 311.0625 329.832031 311.070312 329.78125 311.070312 329.71875 C 311.09375 329.882812 311.082031 329.902344 311.0625 329.878906 Z M 311.050781 329.523438 C 311.058594 329.429688 311.0625 329.332031 311.0625 329.230469 C 311.066406 329.355469 311.070312 329.429688 311.070312 329.484375 C 311.066406 329.472656 311.058594 329.488281 311.050781 329.523438 Z M 311.125 331.328125 C 311.117188 331.265625 311.078125 331.324219 311.050781 331.328125 C 311.070312 331.230469 311.101562 331.164062 311.09375 330.972656 Z M 311.132812 331.371094 L 311.128906 331.328125 C 311.128906 331.339844 311.132812 331.355469 311.132812 331.371094 Z M 310.632812 332.246094 C 310.628906 332.261719 310.632812 332.277344 310.632812 332.292969 C 310.609375 332.015625 310.574219 331.769531 310.6875 331.734375 C 310.738281 332.03125 310.789062 332.324219 310.632812 332.246094 Z M 310.636719 332.613281 C 310.644531 332.527344 310.640625 332.441406 310.636719 332.355469 C 310.652344 332.507812 310.703125 332.644531 310.636719 332.613281 Z M 311.074219 329.039062 C 311.121094 328.964844 310.949219 329.015625 310.976562 328.882812 C 310.902344 328.164062 311.21875 329.1875 311.074219 329.039062 Z M 228.707031 317.902344 L 228.46875 317.808594 L 228.839844 317.867188 Z M 227.820312 318.0625 L 228.042969 317.898438 L 228.132812 318.078125 C 228.066406 318.035156 227.90625 318.054688 227.820312 318.0625 Z M 227.820312 318.0625 " fill-opacity="1" fill-rule="nonzero"/></g><path fill="#ebd5c4" d="M 309.738281 392.675781 C 309.738281 392.675781 309.457031 415.289062 309.097656 415.269531 C 308.738281 415.25 286.871094 414.898438 286.871094 414.898438 L 286.871094 392.105469 Z M 309.738281 392.675781 " fill-opacity="1" fill-rule="nonzero"/><g clip-path="url(#394fbf0c9e)"><path fill="#072e36" d="M 272.902344 388.46875 C 273.03125 388.722656 274.789062 426.984375 274.027344 427.558594 C 273.269531 428.136719 218.210938 428.339844 217.398438 428.300781 C 217.398438 428.300781 216.546875 390.269531 217.398438 389.519531 C 218.246094 388.769531 272.777344 388.214844 272.902344 388.46875 Z M 331.828125 427.277344 L 319.117188 427.277344 C 319.117188 427.277344 312.527344 447.585938 311.960938 448.835938 L 314.296875 448.835938 L 315.394531 445.539062 L 325.101562 445.539062 L 324.035156 448.835938 L 326.277344 448.835938 L 327.664062 445.003906 L 334.96875 445.003906 L 336.039062 448.835938 L 338.261719 448.835938 Z M 299.859375 400.167969 C 299.757812 399.914062 299.601562 399.695312 299.5625 399.410156 C 299.539062 399.257812 299.425781 399.136719 299.363281 398.996094 C 299.304688 398.863281 299.265625 398.714844 299.207031 398.582031 C 299.160156 398.472656 299.101562 398.371094 299.035156 398.277344 C 298.96875 398.1875 298.875 398.117188 298.8125 398.023438 C 298.707031 397.871094 298.617188 397.71875 298.519531 397.5625 C 298.445312 397.457031 298.378906 397.339844 298.296875 397.238281 C 298.265625 397.199219 298.15625 397.179688 298.167969 397.144531 C 298.207031 397.019531 298.109375 396.980469 298.066406 396.910156 C 297.976562 396.742188 297.8125 396.625 297.683594 396.484375 C 297.578125 396.371094 297.464844 396.234375 297.316406 396.105469 C 297.171875 395.984375 296.953125 395.855469 296.691406 395.859375 C 296.433594 395.855469 296.207031 396.011719 296.070312 396.15625 C 295.929688 396.304688 295.828125 396.449219 295.695312 396.582031 C 295.632812 396.644531 295.617188 396.742188 295.585938 396.8125 C 295.550781 396.890625 295.546875 396.992188 295.476562 397.042969 C 295.398438 397.09375 295.433594 397.171875 295.402344 397.234375 C 295.242188 397.589844 295.101562 397.957031 294.933594 398.316406 C 294.773438 398.667969 294.699219 399.058594 294.445312 399.375 C 294.375 399.464844 294.3125 399.578125 294.375 399.71875 C 294.257812 399.886719 294.292969 400.101562 294.230469 400.285156 C 294.15625 400.503906 293.988281 400.691406 294.039062 400.953125 C 294.042969 400.964844 294.027344 400.980469 294.015625 400.984375 C 293.917969 400.996094 293.945312 401.070312 293.914062 401.113281 C 293.804688 401.257812 293.839844 401.441406 293.816406 401.605469 C 293.804688 401.6875 293.796875 401.769531 293.789062 401.851562 C 293.78125 401.902344 293.800781 401.960938 293.824219 402.019531 C 293.859375 402.09375 293.949219 402.128906 294.046875 402.117188 C 294.269531 402.09375 294.347656 401.96875 294.402344 401.835938 C 294.503906 401.605469 294.605469 401.367188 294.664062 401.121094 C 294.71875 400.875 294.953125 400.695312 294.933594 400.421875 C 294.933594 400.410156 294.941406 400.390625 294.953125 400.382812 C 294.984375 400.347656 295.039062 400.320312 295.054688 400.28125 C 295.070312 400.230469 295.046875 400.171875 295.058594 400.117188 C 295.070312 400.054688 295.144531 399.992188 295.113281 399.941406 C 295.050781 399.820312 295.105469 399.734375 295.164062 399.679688 C 295.308594 399.550781 295.324219 399.375 295.410156 399.222656 C 295.484375 399.089844 295.480469 398.921875 295.636719 398.832031 C 295.667969 398.8125 295.683594 398.761719 295.664062 398.734375 C 295.609375 398.660156 295.660156 398.617188 295.679688 398.570312 C 295.753906 398.386719 295.808594 398.191406 295.917969 398.027344 C 296.023438 397.867188 295.921875 397.621094 296.132812 397.507812 C 296.144531 397.5 296.15625 397.480469 296.148438 397.472656 C 296.066406 397.375 296.144531 397.328125 296.171875 397.269531 C 296.21875 397.164062 296.265625 397.050781 296.355469 396.984375 C 296.445312 396.917969 296.457031 396.792969 296.519531 396.730469 C 296.578125 396.664062 296.660156 396.652344 296.683594 396.652344 C 296.71875 396.652344 296.707031 396.644531 296.753906 396.652344 C 296.769531 396.660156 296.785156 396.675781 296.84375 396.664062 C 296.902344 396.644531 296.964844 396.699219 296.953125 396.792969 C 296.949219 396.8125 296.953125 396.84375 296.960938 396.839844 C 297.078125 396.8125 297.089844 396.898438 297.128906 396.960938 C 297.171875 397.023438 297.257812 397.042969 297.308594 397.09375 C 297.390625 397.171875 297.425781 397.289062 297.46875 397.394531 C 297.527344 397.546875 297.632812 397.671875 297.738281 397.789062 C 297.835938 397.90625 297.84375 398.070312 297.96875 398.175781 C 298.113281 398.296875 298.167969 398.488281 298.273438 398.644531 C 298.378906 398.804688 298.507812 398.949219 298.609375 399.109375 C 298.710938 399.277344 298.789062 399.457031 298.886719 399.625 C 298.921875 399.6875 298.859375 399.804688 298.917969 399.820312 C 299.035156 399.851562 299.03125 399.945312 299.066406 400.011719 C 299.164062 400.195312 299.246094 400.390625 299.328125 400.585938 C 299.425781 400.800781 299.523438 401.019531 299.59375 401.246094 C 299.648438 401.394531 299.808594 401.476562 299.929688 401.582031 C 299.941406 401.589844 299.960938 401.59375 299.980469 401.59375 C 300.074219 401.589844 300.285156 401.421875 300.257812 401.355469 C 300.207031 401.21875 300.242188 401.058594 300.175781 400.917969 C 300.054688 400.667969 299.957031 400.417969 299.859375 400.167969 Z M 299.859375 400.167969 " fill-opacity="1" fill-rule="nonzero"/></g><path fill="#f29f02" d="M 290.03125 401.347656 L 304.617188 401.347656 L 304.617188 407.785156 L 290.21875 407.785156 C 290.21875 407.785156 289.8125 402.011719 290.03125 401.347656 Z M 332.203125 428.367188 C 332.160156 428.316406 331.960938 428.382812 331.933594 428.472656 C 331.871094 428.667969 331.761719 428.828125 331.710938 429.027344 C 331.621094 429.378906 331.515625 429.726562 331.40625 430.070312 C 331.296875 430.414062 331.222656 430.773438 331.0625 431.109375 C 330.976562 431.285156 330.949219 431.5 330.886719 431.695312 C 330.824219 431.886719 330.742188 432.066406 330.683594 432.253906 C 330.632812 432.402344 330.585938 432.554688 330.550781 432.707031 C 330.515625 432.851562 330.503906 433 330.464844 433.144531 C 330.402344 433.378906 330.328125 433.613281 330.261719 433.851562 C 330.210938 434.019531 330.15625 434.1875 330.117188 434.359375 C 330.101562 434.425781 330.121094 434.539062 330.097656 434.566406 C 330 434.652344 330.007812 434.773438 329.96875 434.875 C 329.882812 435.121094 329.847656 435.375 329.789062 435.625 C 329.691406 436.035156 329.566406 436.4375 329.441406 436.839844 C 329.316406 437.242188 329.242188 437.664062 329.050781 438.046875 C 329.003906 438.136719 328.988281 438.25 328.960938 438.355469 C 328.925781 438.46875 328.914062 438.597656 328.855469 438.6875 C 328.796875 438.78125 328.8125 438.867188 328.789062 438.957031 C 328.632812 439.476562 328.496094 439.996094 328.335938 440.507812 C 328.179688 441.015625 328.082031 441.539062 327.859375 442.027344 C 327.796875 442.164062 327.734375 442.332031 327.761719 442.492188 C 327.65625 442.746094 327.65625 443.011719 327.582031 443.273438 C 327.503906 443.574219 327.351562 443.867188 327.355469 444.191406 C 327.355469 444.203125 327.34375 444.230469 327.335938 444.238281 C 327.261719 444.277344 327.269531 444.371094 327.238281 444.4375 C 327.140625 444.648438 327.136719 444.878906 327.09375 445.097656 C 327.078125 445.203125 327.054688 445.316406 327.035156 445.425781 C 327.023438 445.492188 327.027344 445.566406 327.035156 445.632812 C 327.046875 445.722656 327.109375 445.742188 327.183594 445.707031 C 327.347656 445.621094 327.433594 445.433594 327.492188 445.25 C 327.601562 444.914062 327.714844 444.574219 327.789062 444.234375 C 327.867188 443.890625 328.0625 443.589844 328.085938 443.238281 C 328.085938 443.21875 328.09375 443.195312 328.101562 443.179688 C 328.132812 443.125 328.175781 443.074219 328.191406 443.019531 C 328.210938 442.949219 328.199219 442.875 328.214844 442.804688 C 328.230469 442.71875 328.292969 442.617188 328.277344 442.554688 C 328.246094 442.417969 328.296875 442.289062 328.347656 442.199219 C 328.472656 441.988281 328.503906 441.75 328.582031 441.527344 C 328.652344 441.332031 328.667969 441.113281 328.792969 440.9375 C 328.816406 440.90625 328.835938 440.832031 328.824219 440.804688 C 328.789062 440.726562 328.835938 440.65625 328.851562 440.585938 C 328.925781 440.320312 328.984375 440.046875 329.085938 439.796875 C 329.179688 439.550781 329.132812 439.273438 329.296875 439.050781 C 329.304688 439.035156 329.316406 439.003906 329.3125 438.996094 C 329.261719 438.902344 329.324219 438.8125 329.351562 438.726562 C 329.394531 438.570312 329.4375 438.421875 329.515625 438.277344 C 329.59375 438.128906 329.617188 437.941406 329.667969 437.773438 C 329.722656 437.613281 329.796875 437.460938 329.847656 437.300781 C 329.917969 437.085938 329.980469 436.871094 330.035156 436.652344 C 330.058594 436.574219 330.082031 436.5 330.078125 436.40625 C 330.070312 436.308594 330.105469 436.179688 330.179688 436.089844 C 330.195312 436.074219 330.21875 436.03125 330.21875 436.023438 C 330.171875 435.921875 330.234375 435.816406 330.265625 435.722656 C 330.296875 435.621094 330.285156 435.519531 330.308594 435.421875 C 330.339844 435.265625 330.40625 435.121094 330.46875 434.972656 C 330.558594 434.769531 330.613281 434.546875 330.660156 434.328125 C 330.707031 434.121094 330.816406 433.945312 330.847656 433.726562 C 330.882812 433.472656 330.992188 433.21875 331.054688 432.964844 L 331.242188 432.1875 L 331.464844 431.398438 C 331.488281 431.300781 331.589844 431.21875 331.578125 431.15625 C 331.550781 431.03125 331.609375 430.933594 331.636719 430.828125 C 331.710938 430.542969 331.800781 430.261719 331.878906 429.980469 C 331.972656 429.664062 332.0625 429.34375 332.164062 429.027344 C 332.234375 428.8125 332.207031 428.617188 332.214844 428.414062 C 332.21875 428.398438 332.210938 428.378906 332.203125 428.367188 Z M 332.203125 428.367188 " fill-opacity="1" fill-rule="nonzero"/><path fill="#f2532e" d="M 332.863281 367.890625 C 332.898438 367.816406 332.921875 367.722656 332.917969 367.597656 L 333.042969 367.554688 C 333.167969 367.550781 332.984375 367.730469 332.863281 367.890625 Z M 327.671875 352.394531 C 327.621094 352.335938 327.585938 352.320312 327.566406 352.332031 C 327.613281 352.394531 327.65625 352.421875 327.671875 352.394531 Z M 330.894531 374.503906 C 330.867188 374.523438 330.851562 374.546875 330.832031 374.5625 C 330.796875 374.671875 330.761719 374.785156 330.683594 374.902344 C 330.796875 374.804688 330.894531 374.679688 330.894531 374.503906 Z M 304.253906 345.707031 C 304.304688 345.699219 304.382812 345.699219 304.457031 345.699219 C 304.421875 345.691406 304.359375 345.691406 304.253906 345.707031 Z M 332.777344 368.027344 C 332.792969 367.988281 332.824219 367.941406 332.863281 367.890625 C 332.835938 367.949219 332.804688 368.003906 332.777344 368.054688 C 332.773438 368.074219 332.769531 368.09375 332.765625 368.105469 C 332.761719 368.097656 332.761719 368.085938 332.761719 368.074219 C 332.71875 368.15625 332.6875 368.242188 332.714844 368.371094 C 332.441406 368.824219 332.800781 369.515625 332.402344 369.996094 C 332.453125 369.925781 332.488281 369.8125 332.449219 369.769531 C 332.355469 370.222656 332.066406 370.621094 332.082031 370.921875 L 332.207031 370.9375 C 332.164062 371.277344 332.136719 371.542969 332.039062 371.804688 L 332.167969 371.859375 C 332.074219 372.042969 332.019531 372.355469 331.929688 372.640625 C 331.832031 372.925781 331.714844 373.179688 331.535156 373.238281 C 331.605469 373.375 331.277344 373.734375 331.214844 373.957031 L 331.09375 373.960938 C 330.9375 374.210938 330.878906 374.386719 330.828125 374.5625 C 330.75 374.632812 330.683594 374.707031 330.625 374.785156 C 330.59375 374.859375 330.566406 374.933594 330.535156 375.011719 C 330.578125 374.976562 330.628906 374.941406 330.683594 374.898438 C 330.632812 374.972656 330.566406 375.050781 330.484375 375.136719 C 328.3125 380.304688 324.289062 383.625 318.335938 383.671875 C 307.902344 383.753906 306.820312 372.898438 306.375 364.71875 L 280.28125 364.386719 L 280.292969 364.957031 C 279.585938 373.550781 277.28125 383.675781 267.554688 383.675781 C 256.675781 383.675781 254.152344 370.246094 254.492188 364.71875 C 254.492188 364.71875 229.726562 364.195312 229.347656 364.46875 C 229.15625 365.101562 229.609375 383.675781 214.375 383.675781 C 203.738281 383.675781 201.957031 368.191406 203.085938 365.492188 C 204.214844 362.796875 212.484375 346.238281 212.484375 346.238281 L 233.015625 346.238281 L 241.75 352.199219 L 256.964844 346.238281 L 279.894531 346.238281 L 287.242188 351.890625 L 302.8125 346.238281 L 303.433594 346.238281 C 303.296875 346.101562 303.171875 345.976562 303.316406 345.863281 L 303.117188 345.894531 C 303.183594 345.71875 303.738281 345.890625 303.855469 345.707031 L 304.476562 345.890625 C 304.457031 345.828125 304.5625 345.726562 304.460938 345.703125 C 304.617188 345.703125 304.75 345.691406 304.546875 345.597656 C 306.039062 346.042969 307.570312 345.609375 309.039062 345.847656 C 309.136719 345.832031 309.082031 345.769531 309.039062 345.730469 C 309.3125 345.898438 309.296875 345.640625 309.449219 345.617188 L 309.84375 345.863281 C 310.003906 345.789062 309.878906 345.714844 309.890625 345.667969 C 310.636719 345.617188 311.367188 345.855469 311.976562 345.714844 C 312.167969 345.800781 311.929688 345.910156 312.183594 345.941406 C 311.835938 345.6875 312.925781 345.820312 312.707031 345.644531 C 312.953125 345.914062 313.621094 345.703125 313.511719 346.074219 C 313.816406 346.09375 313.761719 345.917969 313.675781 345.882812 C 314.027344 345.894531 314.316406 345.898438 314.605469 345.78125 C 314.796875 345.867188 316.222656 345.6875 316.539062 345.96875 C 316.324219 345.785156 316.554688 345.871094 316.761719 345.792969 L 316.574219 345.632812 L 317.039062 345.652344 C 317.136719 345.632812 317.160156 345.644531 317.160156 345.65625 C 317.242188 345.664062 317.144531 345.75 317.34375 345.789062 C 317.660156 345.800781 317.675781 345.710938 317.851562 345.628906 L 317.800781 345.605469 L 318.015625 345.589844 C 318.175781 345.59375 317.453125 345.75 317.972656 345.828125 C 317.980469 345.785156 318.285156 345.574219 318.421875 345.6875 C 318.160156 345.679688 318.191406 345.792969 318.289062 345.835938 L 318.660156 345.847656 L 318.539062 345.644531 C 319.597656 345.65625 320.703125 345.800781 321.835938 345.789062 C 321.820312 345.96875 322.640625 345.796875 322.535156 346.058594 L 322.492188 346.035156 C 322.214844 346.058594 322.574219 346.242188 322.796875 346.210938 C 322.5625 346.128906 323.222656 345.949219 322.648438 345.910156 L 323.089844 345.785156 C 323.128906 345.707031 323.183594 345.65625 323.25 345.625 C 323.285156 345.609375 323.324219 345.59375 323.363281 345.585938 C 323.382812 345.582031 323.402344 345.578125 323.425781 345.574219 C 323.457031 345.574219 323.492188 345.574219 323.527344 345.570312 C 323.820312 345.5625 324.167969 345.601562 324.496094 345.640625 C 324.574219 345.863281 324.652344 346.078125 324.734375 346.277344 C 324.777344 346.375 324.820312 346.472656 324.867188 346.5625 L 324.902344 346.628906 L 324.929688 346.671875 C 324.949219 346.699219 324.96875 346.726562 324.992188 346.753906 C 324.953125 346.71875 324.921875 346.71875 324.90625 346.71875 C 325.304688 347.195312 325.351562 347.992188 325.480469 348.085938 L 325.378906 348.191406 C 325.785156 348.5625 325.828125 348.613281 326.007812 349.199219 C 325.984375 349.203125 325.917969 349.152344 325.933594 349.253906 C 326.089844 349.34375 326.242188 349.433594 326.394531 349.824219 L 326.351562 349.828125 L 326.644531 350.410156 C 326.257812 350.582031 327.351562 351.3125 327.019531 351.683594 C 327.183594 351.75 327.421875 352.164062 327.566406 352.332031 C 327.550781 352.339844 327.539062 352.359375 327.539062 352.402344 C 327.851562 352.53125 327.777344 353.085938 327.921875 353.328125 C 328.046875 353.46875 328.078125 353.367188 328.109375 353.265625 C 328.097656 353.664062 328.710938 354.078125 328.695312 354.226562 C 328.789062 354.472656 328.589844 354.382812 328.535156 354.488281 C 328.738281 354.824219 328.855469 354.265625 328.925781 354.8125 C 328.878906 354.765625 328.820312 354.667969 328.816406 354.722656 C 328.867188 354.917969 328.578125 355.445312 328.75 355.585938 L 328.765625 355.433594 C 329.015625 355.71875 328.816406 356.363281 329.101562 356.292969 L 329.207031 356.207031 C 329.3125 356.851562 329.367188 356.425781 329.496094 357.066406 L 329.472656 357.070312 C 329.613281 357.3125 329.527344 357.515625 329.777344 357.550781 L 329.761719 357.453125 C 329.921875 357.757812 329.921875 357.792969 330.058594 358.117188 C 330.097656 358.144531 330.195312 358.285156 330.175781 358.347656 C 330.34375 358.289062 330.59375 359.050781 330.652344 359.199219 C 330.511719 358.957031 330.496094 359.109375 330.464844 359.210938 C 330.664062 359.296875 330.726562 359.394531 330.726562 359.644531 C 330.941406 359.578125 331.175781 359.523438 331.375 359.921875 C 331.316406 359.875 331.253906 359.785156 331.230469 359.84375 C 331.210938 359.90625 331.300781 359.976562 331.328125 360.003906 C 331.308594 360.0625 331.214844 359.949219 331.167969 360.027344 C 331.488281 360.210938 331.402344 360.492188 331.65625 360.855469 C 331.535156 360.761719 331.546875 360.886719 331.5 360.964844 C 331.738281 360.886719 331.554688 361.597656 331.777344 361.308594 C 331.96875 362.171875 332.679688 363.277344 332.644531 363.691406 C 332.621094 363.765625 332.691406 363.847656 332.75 363.953125 C 332.773438 364.0625 332.8125 364.207031 332.8125 364.285156 L 332.703125 364.261719 C 332.898438 364.6875 332.777344 364.589844 332.96875 365.09375 C 332.839844 364.882812 332.785156 364.96875 332.671875 365.171875 L 332.882812 365.519531 L 332.710938 365.582031 C 332.769531 365.722656 332.738281 365.878906 332.703125 366.03125 C 332.707031 365.957031 332.6875 365.996094 332.65625 366 C 332.890625 366.089844 332.808594 366.703125 332.914062 366.808594 C 332.675781 366.9375 332.9375 367.222656 332.707031 367.3125 C 332.734375 367.367188 332.75 367.433594 332.761719 367.507812 C 332.871094 367.445312 332.988281 367.433594 332.917969 367.566406 C 332.917969 367.578125 332.917969 367.585938 332.917969 367.597656 L 332.777344 367.640625 C 332.789062 367.785156 332.785156 367.933594 332.777344 368.027344 Z M 330.316406 359.238281 C 330.3125 359.289062 330.300781 359.363281 330.28125 359.449219 L 330.320312 359.535156 C 330.351562 359.5625 330.386719 359.589844 330.414062 359.613281 C 330.390625 359.605469 330.367188 359.597656 330.34375 359.585938 L 330.4375 359.789062 C 330.46875 359.773438 330.488281 359.738281 330.488281 359.667969 C 330.464844 359.65625 330.441406 359.632812 330.414062 359.613281 C 330.511719 359.648438 330.585938 359.660156 330.589844 359.601562 Z M 317.191406 345.734375 L 317.117188 345.699219 C 317.074219 345.738281 317.027344 345.773438 317.191406 345.734375 Z M 331.84375 371.160156 C 331.824219 371.132812 331.78125 371.105469 331.734375 371.078125 C 331.710938 371.191406 331.683594 371.304688 331.65625 371.417969 C 331.753906 371.292969 331.835938 371.179688 331.84375 371.160156 Z M 332.238281 369.269531 L 332.347656 369.195312 C 332.339844 369.011719 332.253906 368.820312 332.144531 368.648438 C 332.117188 368.863281 332.085938 369.078125 332.058594 369.292969 C 332.136719 369.433594 332.210938 369.5625 332.269531 369.644531 Z M 332.636719 365.132812 C 332.558594 365.042969 332.480469 364.949219 332.398438 364.859375 C 332.398438 364.949219 332.394531 365.039062 332.394531 365.128906 C 332.492188 365.117188 332.578125 365.109375 332.636719 365.132812 Z M 303.433594 345.554688 L 303.207031 345.496094 L 303.351562 345.589844 Z M 303.003906 345.765625 L 302.953125 345.589844 L 302.816406 345.75 C 302.867188 345.738281 302.96875 345.726562 303.003906 345.765625 Z M 303.003906 345.765625 " fill-opacity="1" fill-rule="nonzero"/><path fill="#ebd5c4" d="M 242.210938 383.671875 C 232.644531 383.597656 229.269531 375.539062 229.355469 364.464844 L 233.019531 346.234375 L 256.964844 346.234375 L 254.496094 364.71875 C 254.054688 372.898438 252.648438 383.753906 242.210938 383.671875 Z M 302.816406 346.234375 L 279.894531 346.234375 L 280.261719 364.953125 C 280.96875 373.546875 284.101562 383.671875 293.828125 383.671875 C 304.707031 383.671875 306.722656 370.246094 306.382812 364.71875 Z M 304.832031 322.644531 L 229.03125 321.625 C 227.289062 321.601562 225.835938 322.953125 225.742188 324.691406 L 224.917969 339.867188 C 224.816406 341.722656 226.296875 343.285156 228.164062 343.285156 L 304.785156 343.285156 C 306.582031 343.285156 308.035156 341.832031 308.035156 340.042969 L 308.035156 325.890625 C 308.035156 324.113281 306.609375 322.667969 304.832031 322.644531 Z M 220.085938 393.152344 C 220.257812 393.988281 220.792969 422.964844 220.808594 423.726562 C 220.828125 424.488281 270.378906 424.4375 271.015625 423.726562 C 271.648438 423.015625 269.96875 393.800781 269.988281 392.96875 C 270.015625 392.140625 219.910156 392.316406 220.085938 393.152344 Z M 220.085938 393.152344 " fill-opacity="1" fill-rule="nonzero"/><path fill="#072e36" d="M 286.5625 417.539062 C 286.5625 418.222656 286.007812 418.773438 285.324219 418.773438 C 284.640625 418.773438 284.085938 418.222656 284.085938 417.539062 C 284.085938 416.855469 284.640625 416.304688 285.324219 416.304688 C 286.007812 416.304688 286.5625 416.855469 286.5625 417.539062 Z M 323.878906 363.21875 C 322.59375 363.261719 321.371094 363.179688 320.046875 363.21875 C 317.703125 363.273438 315.351562 363.289062 313.003906 363.300781 C 310.644531 363.3125 308.285156 363.378906 305.914062 363.308594 C 304.644531 363.269531 303.261719 363.324219 301.929688 363.324219 C 300.644531 363.3125 299.371094 363.300781 298.085938 363.289062 C 297.074219 363.289062 296.050781 363.292969 295.042969 363.308594 C 294.078125 363.324219 293.121094 363.375 292.15625 363.386719 C 290.570312 363.394531 288.980469 363.40625 287.398438 363.417969 C 286.253906 363.425781 285.109375 363.429688 283.96875 363.441406 C 283.511719 363.445312 282.84375 363.527344 282.648438 363.5 C 281.941406 363.398438 281.191406 363.464844 280.476562 363.457031 C 278.804688 363.445312 277.152344 363.515625 275.492188 363.539062 C 272.777344 363.582031 270.035156 363.582031 267.308594 363.582031 C 264.570312 363.582031 261.808594 363.664062 259.082031 363.558594 C 258.421875 363.535156 257.691406 363.5625 256.992188 363.5625 C 256.230469 363.566406 255.386719 363.605469 254.730469 363.5625 C 254.035156 363.519531 253.523438 363.582031 252.929688 363.582031 C 249.4375 363.59375 245.949219 363.601562 242.460938 363.613281 C 239.019531 363.605469 235.570312 363.695312 232.136719 363.589844 C 231.160156 363.558594 230.027344 363.542969 229.066406 363.652344 C 227.308594 363.609375 225.628906 363.722656 223.890625 363.734375 C 221.851562 363.746094 219.765625 363.660156 217.761719 363.800781 C 217.667969 363.804688 217.476562 363.800781 217.425781 363.785156 C 217.035156 363.695312 216.488281 363.75 216.019531 363.734375 C 214.511719 363.6875 213.070312 363.777344 211.617188 363.804688 C 210.921875 363.820312 210.199219 363.835938 209.484375 363.855469 C 209.039062 363.859375 208.589844 363.890625 208.195312 363.929688 C 207.660156 363.976562 207.652344 364.074219 208.035156 364.171875 C 208.457031 364.277344 209 364.34375 209.59375 364.382812 C 210.183594 364.417969 210.820312 364.433594 211.449219 364.4375 C 213.730469 364.464844 216.03125 364.472656 218.300781 364.441406 C 220.5625 364.410156 222.789062 364.558594 225.035156 364.441406 C 225.152344 364.4375 225.296875 364.4375 225.414062 364.441406 C 225.808594 364.460938 226.199219 364.5 226.589844 364.496094 C 227.050781 364.496094 227.492188 364.445312 227.957031 364.4375 C 228.523438 364.425781 229.273438 364.472656 229.632812 364.425781 C 230.421875 364.320312 231.3125 364.339844 231.96875 364.375 C 233.515625 364.453125 235.054688 364.402344 236.589844 364.417969 C 237.933594 364.429688 239.316406 364.359375 240.632812 364.464844 C 240.871094 364.484375 241.367188 364.480469 241.523438 364.453125 C 241.960938 364.371094 242.464844 364.402344 242.941406 364.398438 C 244.714844 364.390625 246.515625 364.355469 248.265625 364.386719 C 249.964844 364.417969 251.613281 364.222656 253.289062 364.359375 C 253.390625 364.367188 253.613281 364.367188 253.65625 364.355469 C 254.140625 364.246094 254.828125 364.292969 255.414062 364.289062 C 256.449219 364.285156 257.457031 364.277344 258.515625 364.328125 C 259.566406 364.375 260.78125 364.320312 261.921875 364.328125 C 263.015625 364.34375 264.101562 364.355469 265.195312 364.375 C 266.652344 364.378906 268.113281 364.367188 269.570312 364.355469 C 270.105469 364.347656 270.609375 364.355469 271.179688 364.304688 C 271.765625 364.25 272.621094 364.242188 273.324219 364.3125 C 273.46875 364.324219 273.761719 364.34375 273.808594 364.335938 C 274.375 364.222656 275.109375 364.269531 275.757812 364.269531 C 276.460938 364.269531 277.058594 364.210938 277.699219 364.195312 C 278.726562 364.171875 279.75 364.203125 280.785156 364.226562 C 282.203125 364.257812 283.703125 364.238281 285.152344 364.207031 C 286.519531 364.179688 287.804688 364.257812 289.234375 364.203125 C 290.882812 364.136719 292.652344 364.179688 294.359375 364.15625 C 296.085938 364.125 297.808594 364.09375 299.535156 364.0625 C 301.308594 364.046875 303.089844 364.03125 304.867188 364.019531 C 305.523438 364.011719 306.207031 364.117188 306.570312 364.066406 C 307.308594 363.964844 308.03125 364.003906 308.738281 363.996094 C 310.640625 363.976562 312.546875 363.960938 314.453125 363.941406 C 316.613281 363.914062 318.769531 363.890625 320.925781 363.863281 C 322.386719 363.847656 323.558594 363.714844 324.839844 363.570312 C 324.941406 363.5625 325.039062 363.539062 325.085938 363.523438 C 325.3125 363.421875 324.46875 363.199219 323.878906 363.21875 Z M 253.671875 401.316406 C 253.460938 401.480469 253.207031 401.5625 252.996094 401.738281 C 252.621094 402.050781 252.234375 402.347656 251.84375 402.636719 C 251.449219 402.929688 251.089844 403.265625 250.652344 403.5 C 250.414062 403.625 250.21875 403.839844 249.996094 404.003906 C 249.78125 404.160156 249.550781 404.296875 249.332031 404.453125 C 249.164062 404.574219 248.996094 404.707031 248.839844 404.847656 C 248.691406 404.984375 248.5625 405.140625 248.410156 405.269531 C 248.160156 405.484375 247.898438 405.683594 247.644531 405.890625 C 247.460938 406.039062 247.273438 406.1875 247.097656 406.34375 C 247.027344 406.40625 246.96875 406.554688 246.917969 406.558594 C 246.738281 406.570312 246.65625 406.714844 246.535156 406.800781 C 246.253906 407.003906 246.027344 407.269531 245.773438 407.503906 C 245.355469 407.882812 244.917969 408.242188 244.476562 408.597656 C 244.03125 408.953125 243.640625 409.378906 243.136719 409.65625 C 243.011719 409.726562 242.914062 409.839844 242.804688 409.9375 C 242.683594 410.039062 242.574219 410.179688 242.441406 410.234375 C 242.300781 410.289062 242.261719 410.40625 242.167969 410.488281 L 240.527344 411.910156 C 239.984375 412.371094 239.5 412.90625 238.890625 413.296875 C 238.714844 413.40625 238.527344 413.546875 238.453125 413.761719 C 238.152344 413.972656 237.96875 414.289062 237.703125 414.539062 C 237.398438 414.828125 237.019531 415.058594 236.804688 415.4375 C 236.792969 415.453125 236.761719 415.480469 236.742188 415.476562 C 236.625 415.464844 236.574219 415.582031 236.496094 415.636719 C 236.230469 415.8125 236.074219 416.082031 235.875 416.3125 C 235.785156 416.425781 235.6875 416.539062 235.589844 416.65625 C 235.527344 416.726562 235.488281 416.820312 235.457031 416.90625 C 235.414062 417.023438 235.484375 417.09375 235.601562 417.101562 C 235.867188 417.128906 236.085938 416.972656 236.28125 416.796875 C 236.636719 416.488281 236.996094 416.175781 237.320312 415.835938 C 237.644531 415.496094 238.089844 415.296875 238.355469 414.898438 C 238.367188 414.878906 238.390625 414.859375 238.414062 414.847656 C 238.484375 414.808594 238.574219 414.785156 238.632812 414.730469 C 238.699219 414.664062 238.738281 414.566406 238.804688 414.496094 C 238.882812 414.410156 239.027344 414.339844 239.050781 414.257812 C 239.105469 414.070312 239.257812 413.964844 239.378906 413.898438 C 239.675781 413.746094 239.878906 413.5 240.128906 413.304688 C 240.347656 413.132812 240.519531 412.894531 240.796875 412.792969 C 240.847656 412.773438 240.921875 412.703125 240.925781 412.664062 C 240.941406 412.546875 241.039062 412.5 241.113281 412.433594 C 241.386719 412.1875 241.652344 411.925781 241.945312 411.714844 C 242.234375 411.511719 242.367188 411.144531 242.726562 411.027344 C 242.746094 411.019531 242.78125 410.992188 242.78125 410.976562 C 242.785156 410.828125 242.925781 410.773438 243.019531 410.695312 C 243.179688 410.554688 243.335938 410.417969 243.535156 410.316406 C 243.734375 410.214844 243.894531 410.015625 244.082031 409.871094 C 244.261719 409.734375 244.457031 409.621094 244.636719 409.480469 C 244.871094 409.292969 245.101562 409.09375 245.328125 408.898438 C 245.40625 408.824219 245.492188 408.761719 245.554688 408.648438 C 245.617188 408.535156 245.75 408.417969 245.90625 408.378906 C 245.941406 408.371094 246 408.347656 246 408.332031 C 246.019531 408.175781 246.167969 408.113281 246.273438 408.03125 C 246.386719 407.941406 246.445312 407.820312 246.542969 407.722656 C 246.695312 407.574219 246.882812 407.46875 247.066406 407.355469 C 247.316406 407.203125 247.550781 406.996094 247.769531 406.789062 C 247.972656 406.59375 248.234375 406.492188 248.433594 406.269531 C 248.664062 406.011719 248.980469 405.820312 249.25 405.589844 C 249.519531 405.359375 249.773438 405.105469 250.046875 404.878906 C 250.324219 404.640625 250.625 404.421875 250.90625 404.1875 C 251.007812 404.101562 251.191406 404.101562 251.222656 404.015625 C 251.285156 403.847656 251.429688 403.792969 251.542969 403.699219 C 251.84375 403.449219 252.160156 403.210938 252.472656 402.972656 C 252.824219 402.699219 253.171875 402.417969 253.535156 402.15625 C 253.777344 401.980469 253.894531 401.730469 254.054688 401.507812 C 254.070312 401.492188 254.074219 401.464844 254.070312 401.445312 C 254.0625 401.335938 253.773438 401.238281 253.671875 401.316406 Z M 251.300781 409.390625 C 251.246094 409.320312 251.027344 409.179688 251.007812 409.203125 C 250.960938 409.253906 250.855469 409.242188 250.816406 409.300781 C 250.75 409.402344 250.664062 409.488281 250.574219 409.570312 C 250.484375 409.65625 250.433594 409.773438 250.28125 409.804688 C 250.203125 409.824219 250.1875 409.910156 250.132812 409.953125 C 250.078125 409.996094 250.007812 410.015625 249.953125 410.058594 C 249.910156 410.089844 249.875 410.128906 249.847656 410.175781 C 249.820312 410.21875 249.820312 410.28125 249.792969 410.324219 C 249.742188 410.394531 249.683594 410.449219 249.625 410.511719 C 249.585938 410.554688 249.542969 410.59375 249.507812 410.640625 C 249.492188 410.660156 249.527344 410.738281 249.5 410.730469 C 249.398438 410.6875 249.414062 410.757812 249.382812 410.773438 C 249.304688 410.824219 249.292969 410.925781 249.246094 411.003906 C 249.171875 411.125 249.066406 411.222656 248.960938 411.320312 C 248.855469 411.417969 248.808594 411.566406 248.628906 411.59375 C 248.585938 411.601562 248.578125 411.648438 248.550781 411.671875 C 248.523438 411.699219 248.523438 411.757812 248.464844 411.753906 C 248.40625 411.746094 248.433594 411.808594 248.410156 411.832031 C 248.285156 411.960938 248.171875 412.105469 248.035156 412.226562 C 247.902344 412.347656 247.839844 412.53125 247.632812 412.582031 C 247.574219 412.597656 247.519531 412.628906 247.566406 412.738281 C 247.46875 412.773438 247.492188 412.914062 247.4375 412.988281 C 247.371094 413.070312 247.234375 413.089844 247.261719 413.261719 C 247.265625 413.269531 247.253906 413.269531 247.242188 413.265625 C 247.164062 413.21875 247.183594 413.277344 247.15625 413.285156 C 247.066406 413.308594 247.082031 413.425781 247.058594 413.503906 C 247.042969 413.542969 247.039062 413.585938 247.023438 413.621094 C 247.015625 413.648438 247.03125 413.691406 247.046875 413.734375 C 247.070312 413.792969 247.140625 413.859375 247.21875 413.902344 C 247.394531 414.007812 247.46875 413.976562 247.519531 413.9375 C 247.609375 413.859375 247.699219 413.78125 247.757812 413.675781 C 247.8125 413.566406 248.007812 413.585938 248 413.421875 C 248 413.414062 248.007812 413.410156 248.015625 413.410156 C 248.042969 413.40625 248.089844 413.417969 248.097656 413.402344 C 248.117188 413.382812 248.097656 413.335938 248.105469 413.3125 C 248.117188 413.28125 248.175781 413.285156 248.15625 413.242188 C 248.105469 413.140625 248.152344 413.121094 248.203125 413.117188 C 248.320312 413.117188 248.335938 413.023438 248.410156 412.976562 C 248.46875 412.941406 248.46875 412.839844 248.59375 412.863281 C 248.621094 412.871094 248.632812 412.847656 248.621094 412.824219 C 248.578125 412.753906 248.617188 412.757812 248.632812 412.738281 C 248.691406 412.667969 248.738281 412.582031 248.824219 412.539062 C 248.914062 412.496094 248.832031 412.304688 248.996094 412.339844 C 249.007812 412.34375 249.015625 412.335938 249.011719 412.324219 C 248.945312 412.234375 249.007812 412.238281 249.027344 412.21875 C 249.0625 412.175781 249.097656 412.136719 249.171875 412.132812 C 249.25 412.128906 249.253906 412.050781 249.304688 412.011719 C 249.347656 411.976562 249.417969 411.964844 249.464844 411.929688 C 249.523438 411.878906 249.570312 411.820312 249.617188 411.761719 C 249.632812 411.738281 249.65625 411.722656 249.640625 411.667969 C 249.625 411.613281 249.652344 411.578125 249.730469 411.597656 C 249.75 411.601562 249.773438 411.601562 249.765625 411.59375 C 249.707031 411.5 249.765625 411.503906 249.792969 411.480469 C 249.820312 411.457031 249.800781 411.398438 249.816406 411.363281 C 249.835938 411.3125 249.902344 411.300781 249.960938 411.28125 C 250.042969 411.253906 250.082031 411.1875 250.117188 411.117188 C 250.148438 411.054688 250.261719 411.0625 250.273438 410.976562 C 250.289062 410.875 250.390625 410.84375 250.441406 410.769531 C 250.496094 410.695312 250.527344 410.605469 250.582031 410.53125 C 250.636719 410.457031 250.710938 410.398438 250.761719 410.324219 C 250.78125 410.296875 250.886719 410.34375 250.867188 410.296875 C 250.824219 410.207031 250.882812 410.210938 250.902344 410.179688 C 250.964844 410.101562 251.035156 410.03125 251.101562 409.957031 C 251.179688 409.875 251.246094 409.789062 251.332031 409.710938 C 251.390625 409.664062 251.335938 409.53125 251.324219 409.425781 C 251.324219 409.417969 251.3125 409.402344 251.300781 409.390625 Z M 293.648438 404.394531 C 293.625 404.296875 293.613281 404.191406 293.585938 404.09375 C 293.5625 404.019531 293.527344 403.941406 293.488281 403.871094 C 293.445312 403.804688 293.386719 403.75 293.34375 403.6875 C 293.273438 403.582031 293.203125 403.46875 293.117188 403.363281 C 293.050781 403.289062 292.984375 403.210938 292.890625 403.152344 C 292.855469 403.125 292.773438 403.140625 292.765625 403.113281 C 292.734375 403.015625 292.640625 403.019531 292.5625 403 C 292.347656 402.945312 292.226562 403.027344 292.082031 403.085938 C 291.855469 403.183594 291.660156 403.328125 291.511719 403.511719 C 291.4375 403.597656 291.382812 403.707031 291.335938 403.8125 C 291.292969 403.90625 291.246094 404.003906 291.171875 404.09375 C 291.136719 404.136719 291.132812 404.199219 291.121094 404.257812 C 291.105469 404.316406 291.113281 404.390625 291.074219 404.4375 C 291.035156 404.492188 291.070312 404.542969 291.0625 404.589844 C 291.027344 404.886719 291.101562 405.195312 291.195312 405.453125 C 291.292969 405.722656 291.457031 405.910156 291.519531 406.183594 C 291.542969 406.261719 291.59375 406.367188 291.714844 406.386719 C 291.761719 406.464844 291.84375 406.515625 291.929688 406.542969 C 292.011719 406.574219 292.097656 406.585938 292.179688 406.601562 C 292.359375 406.640625 292.566406 406.683594 292.714844 406.550781 C 292.722656 406.546875 292.742188 406.546875 292.746094 406.550781 C 292.796875 406.597656 292.832031 406.550781 292.875 406.542969 C 293.007812 406.523438 293.078125 406.410156 293.160156 406.335938 C 293.199219 406.300781 293.238281 406.261719 293.273438 406.226562 C 293.300781 406.203125 293.3125 406.164062 293.324219 406.128906 C 293.339844 406.078125 293.3125 406.019531 293.257812 405.980469 C 293.140625 405.890625 293.035156 405.925781 292.953125 405.96875 C 292.804688 406.042969 292.6875 406.101562 292.578125 406.144531 C 292.519531 406.167969 292.457031 406.152344 292.398438 406.136719 C 292.339844 406.121094 292.296875 406.109375 292.238281 406.128906 C 292.234375 406.128906 292.226562 406.128906 292.222656 406.121094 C 292.210938 406.101562 292.210938 406.070312 292.199219 406.066406 C 292.183594 406.058594 292.152344 406.074219 292.132812 406.066406 C 292.109375 406.054688 292.109375 406.011719 292.074219 406.015625 C 291.996094 406.03125 291.976562 405.96875 291.976562 405.925781 C 291.976562 405.8125 291.890625 405.722656 291.851562 405.625 C 291.820312 405.535156 291.738281 405.46875 291.769531 405.359375 C 291.773438 405.339844 291.761719 405.308594 291.738281 405.308594 C 291.679688 405.300781 291.6875 405.261719 291.675781 405.234375 C 291.632812 405.128906 291.585938 405.019531 291.59375 404.914062 C 291.601562 404.816406 291.476562 404.714844 291.582031 404.617188 C 291.585938 404.613281 291.589844 404.597656 291.585938 404.59375 C 291.515625 404.558594 291.554688 404.515625 291.5625 404.480469 C 291.578125 404.414062 291.589844 404.347656 291.648438 404.296875 C 291.703125 404.242188 291.699219 404.15625 291.734375 404.089844 C 291.773438 404.023438 291.820312 403.976562 291.855469 403.925781 C 291.90625 403.863281 291.949219 403.796875 292.003906 403.742188 C 292.023438 403.71875 292.046875 403.707031 292.050781 403.660156 C 292.058594 403.617188 292.097656 403.585938 292.152344 403.609375 C 292.164062 403.617188 292.179688 403.621094 292.179688 403.613281 C 292.171875 403.535156 292.226562 403.546875 292.257812 403.539062 C 292.292969 403.53125 292.316406 403.488281 292.347656 403.476562 C 292.371094 403.464844 292.410156 403.464844 292.425781 403.472656 C 292.441406 403.480469 292.457031 403.492188 292.472656 403.507812 C 292.507812 403.546875 292.5625 403.566406 292.632812 403.609375 C 292.703125 403.652344 292.707031 403.75 292.785156 403.800781 C 292.875 403.863281 292.90625 403.980469 292.960938 404.078125 C 293.023438 404.175781 293.089844 404.277344 293.140625 404.382812 C 293.191406 404.496094 293.214844 404.617188 293.253906 404.734375 C 293.265625 404.777344 293.207031 404.839844 293.242188 404.855469 C 293.3125 404.890625 293.292969 404.949219 293.304688 404.992188 C 293.335938 405.121094 293.34375 405.246094 293.347656 405.371094 C 293.351562 405.511719 293.34375 405.652344 293.300781 405.753906 C 293.265625 405.816406 293.324219 405.890625 293.292969 405.980469 C 293.289062 405.984375 293.292969 405.996094 293.292969 406.011719 C 293.300781 406.039062 293.332031 406.089844 293.378906 406.121094 C 293.421875 406.148438 293.484375 406.164062 293.503906 406.136719 C 293.605469 406.042969 293.707031 405.953125 293.734375 405.832031 C 293.777344 405.625 293.78125 405.433594 293.777344 405.246094 C 293.769531 405.058594 293.707031 404.886719 293.726562 404.695312 C 293.734375 404.585938 293.671875 404.492188 293.648438 404.394531 Z M 296.390625 403.546875 C 296.40625 403.625 296.453125 403.699219 296.460938 403.78125 C 296.464844 403.863281 296.460938 403.953125 296.441406 404.03125 C 296.40625 404.132812 296.363281 404.226562 296.316406 404.316406 C 296.261719 404.40625 296.246094 404.523438 296.15625 404.585938 C 296.007812 404.699219 295.898438 404.835938 295.746094 404.929688 C 295.671875 404.972656 295.597656 405.023438 295.515625 405.054688 C 295.4375 405.082031 295.355469 405.117188 295.277344 405.152344 C 295.226562 405.171875 295.171875 405.167969 295.121094 405.160156 C 295.101562 405.203125 295.097656 405.257812 295.160156 405.300781 C 295.191406 405.324219 295.160156 405.375 295.167969 405.410156 C 295.171875 405.441406 295.207031 405.46875 295.207031 405.5 C 295.207031 405.523438 295.179688 405.550781 295.167969 405.574219 C 295.164062 405.582031 295.164062 405.589844 295.167969 405.601562 C 295.246094 405.746094 295.140625 405.890625 295.164062 406.035156 C 295.183594 406.183594 295.171875 406.332031 295.15625 406.480469 C 295.144531 406.5625 295.121094 406.644531 294.988281 406.691406 C 294.925781 406.714844 294.863281 406.714844 294.824219 406.675781 C 294.796875 406.648438 294.773438 406.621094 294.765625 406.59375 C 294.753906 406.546875 294.742188 406.5 294.730469 406.457031 C 294.710938 406.363281 294.652344 406.269531 294.683594 406.171875 C 294.695312 406.144531 294.660156 406.109375 294.71875 406.085938 C 294.730469 406.082031 294.734375 406.066406 294.730469 406.0625 C 294.640625 405.933594 294.699219 405.804688 294.695312 405.671875 C 294.6875 405.5625 294.613281 405.457031 294.644531 405.34375 C 294.570312 405.285156 294.582031 405.210938 294.605469 405.152344 C 294.675781 404.929688 294.617188 404.710938 294.617188 404.496094 C 294.617188 404.273438 294.597656 404.050781 294.585938 403.828125 C 294.582031 403.792969 294.539062 403.761719 294.570312 403.714844 C 294.597656 403.671875 294.570312 403.621094 294.5625 403.574219 C 294.5625 403.527344 294.542969 403.484375 294.554688 403.441406 C 294.570312 403.394531 294.578125 403.351562 294.582031 403.308594 C 294.585938 403.253906 294.578125 403.167969 294.570312 403.097656 C 294.578125 402.964844 294.460938 402.734375 294.683594 402.777344 C 294.828125 402.761719 294.992188 402.734375 295.109375 402.730469 C 295.207031 402.734375 295.308594 402.734375 295.410156 402.734375 C 295.53125 402.757812 295.679688 402.726562 295.792969 402.816406 C 295.839844 402.851562 295.917969 402.84375 295.925781 402.929688 C 295.925781 402.957031 296 402.949219 296.035156 402.972656 C 296.070312 403.003906 296.109375 403.035156 296.140625 403.070312 L 296.222656 403.1875 C 296.265625 403.242188 296.296875 403.300781 296.316406 403.363281 C 296.347656 403.421875 296.378906 403.484375 296.390625 403.546875 Z M 295.902344 403.761719 C 295.890625 403.722656 295.890625 403.683594 295.890625 403.644531 C 295.875 403.609375 295.863281 403.570312 295.832031 403.542969 C 295.8125 403.519531 295.792969 403.5 295.785156 403.46875 C 295.777344 403.441406 295.777344 403.40625 295.742188 403.394531 C 295.683594 403.363281 295.636719 403.324219 295.589844 403.28125 C 295.574219 403.261719 295.554688 403.238281 295.535156 403.21875 C 295.515625 403.203125 295.488281 403.199219 295.460938 403.199219 C 295.425781 403.199219 295.390625 403.230469 295.359375 403.214844 C 295.332031 403.203125 295.289062 403.175781 295.253906 403.246094 C 295.253906 403.253906 295.238281 403.238281 295.230469 403.230469 C 295.195312 403.179688 295.148438 403.183594 295.121094 403.210938 C 295.101562 403.242188 295.113281 403.238281 295.109375 403.242188 C 295.109375 403.246094 295.109375 403.246094 295.101562 403.246094 C 295.097656 403.242188 295.070312 403.238281 295.0625 403.25 C 295.058594 403.238281 295.070312 403.300781 295.074219 403.332031 C 295.082031 403.371094 295.085938 403.40625 295.070312 403.441406 C 295.039062 403.511719 295.046875 403.574219 295.050781 403.644531 C 295.054688 403.679688 295.023438 403.726562 295.101562 403.753906 C 295.109375 403.757812 295.109375 403.769531 295.101562 403.777344 C 295.015625 403.890625 295.144531 403.992188 295.128906 404.101562 C 295.109375 404.214844 295.136719 404.332031 295.144531 404.445312 C 295.144531 404.476562 295.125 404.511719 295.179688 404.535156 C 295.199219 404.542969 295.199219 404.578125 295.191406 404.59375 C 295.152344 404.640625 295.148438 404.691406 295.152344 404.738281 C 295.195312 404.726562 295.234375 404.710938 295.28125 404.695312 L 295.363281 404.664062 L 295.4375 404.617188 C 295.480469 404.585938 295.527344 404.570312 295.566406 404.535156 L 295.679688 404.429688 C 295.707031 404.40625 295.746094 404.386719 295.722656 404.320312 C 295.707031 404.289062 295.789062 404.304688 295.808594 404.277344 C 295.839844 404.191406 295.902344 404.113281 295.910156 404.023438 C 295.9375 403.929688 295.90625 403.839844 295.902344 403.761719 Z M 299.453125 406.050781 C 299.371094 406.058594 299.296875 406.007812 299.214844 406.023438 C 299.078125 406.050781 298.9375 406.0625 298.796875 406.070312 C 298.652344 406.078125 298.515625 406.121094 298.367188 406.078125 C 298.289062 406.054688 298.207031 406.09375 298.128906 406.09375 C 298.058594 406.09375 297.941406 406.082031 297.96875 406.070312 C 297.964844 406.066406 297.96875 406.0625 297.960938 406.070312 L 297.941406 406.085938 C 297.933594 406.09375 297.921875 406.101562 297.917969 406.097656 C 297.917969 406.09375 297.914062 406.085938 297.914062 406.074219 L 297.914062 406.058594 L 297.910156 405.988281 C 297.90625 405.917969 297.90625 405.847656 297.894531 405.78125 C 297.890625 405.753906 297.835938 405.714844 297.855469 405.707031 C 297.917969 405.660156 297.878906 405.617188 297.878906 405.574219 C 297.890625 405.472656 297.84375 405.375 297.824219 405.277344 C 297.800781 405.140625 297.792969 405 297.792969 404.859375 C 297.796875 404.855469 297.800781 404.824219 297.808594 404.820312 C 297.8125 404.8125 297.824219 404.84375 297.828125 404.8125 C 297.835938 404.746094 297.84375 404.757812 297.855469 404.78125 C 297.871094 404.839844 297.890625 404.804688 297.90625 404.820312 C 297.925781 404.832031 297.941406 404.789062 297.957031 404.859375 C 297.960938 404.875 297.964844 404.871094 297.96875 404.851562 C 297.972656 404.796875 297.976562 404.820312 297.984375 404.820312 C 298.003906 404.816406 298.027344 404.800781 298.046875 404.824219 C 298.066406 404.851562 298.085938 404.722656 298.105469 404.820312 C 298.105469 404.824219 298.109375 404.824219 298.113281 404.820312 C 298.117188 404.746094 298.125 404.78125 298.132812 404.78125 C 298.148438 404.78125 298.15625 404.777344 298.171875 404.8125 C 298.183594 404.847656 298.199219 404.816406 298.210938 404.820312 C 298.226562 404.828125 298.238281 404.855469 298.25 404.859375 C 298.265625 404.867188 298.285156 404.867188 298.300781 404.859375 C 298.308594 404.859375 298.316406 404.863281 298.320312 404.832031 C 298.328125 404.796875 298.335938 404.796875 298.34375 404.84375 C 298.347656 404.851562 298.351562 404.867188 298.351562 404.859375 C 298.355469 404.785156 298.367188 404.816406 298.375 404.820312 C 298.382812 404.824219 298.390625 404.785156 298.398438 404.777344 C 298.414062 404.761719 298.421875 404.789062 298.4375 404.808594 C 298.453125 404.835938 298.472656 404.828125 298.488281 404.8125 C 298.503906 404.796875 298.519531 404.855469 298.539062 404.824219 C 298.554688 404.785156 298.578125 404.820312 298.601562 404.8125 C 298.621094 404.804688 298.640625 404.78125 298.660156 404.773438 C 298.683594 404.761719 298.707031 404.773438 298.722656 404.765625 C 298.734375 404.761719 298.742188 404.835938 298.746094 404.808594 C 298.753906 404.746094 298.761719 404.773438 298.773438 404.773438 C 298.796875 404.761719 298.820312 404.769531 298.839844 404.769531 C 298.867188 404.769531 298.894531 404.761719 298.917969 404.773438 C 298.933594 404.777344 298.949219 404.691406 298.964844 404.640625 C 298.964844 404.632812 298.964844 404.621094 298.964844 404.613281 C 298.96875 404.550781 298.957031 404.382812 298.953125 404.382812 C 298.9375 404.382812 298.921875 404.324219 298.90625 404.332031 C 298.878906 404.347656 298.847656 404.339844 298.820312 404.335938 C 298.796875 404.328125 298.765625 404.359375 298.738281 404.300781 C 298.722656 404.269531 298.707031 404.300781 298.6875 404.292969 C 298.671875 404.285156 298.660156 404.261719 298.644531 404.25 C 298.632812 404.242188 298.617188 404.242188 298.609375 404.25 C 298.597656 404.261719 298.585938 404.285156 298.574219 404.292969 C 298.554688 404.300781 298.535156 404.296875 298.515625 404.296875 C 298.503906 404.296875 298.488281 404.292969 298.476562 404.296875 C 298.46875 404.300781 298.460938 404.351562 298.457031 404.332031 C 298.449219 404.265625 298.441406 404.304688 298.429688 404.296875 C 298.414062 404.28125 298.390625 404.320312 298.371094 404.332031 C 298.339844 404.351562 298.308594 404.34375 298.273438 404.335938 C 298.242188 404.328125 298.210938 404.375 298.175781 404.296875 C 298.167969 404.277344 298.160156 404.296875 298.152344 404.296875 C 298.144531 404.296875 298.132812 404.320312 298.125 404.289062 C 298.117188 404.257812 298.113281 404.296875 298.101562 404.296875 C 298.0625 404.292969 298.019531 404.304688 297.976562 404.292969 C 297.9375 404.28125 297.898438 404.332031 297.855469 404.257812 C 297.84375 404.234375 297.832031 404.222656 297.820312 404.296875 C 297.808594 404.28125 297.800781 404.289062 297.792969 404.300781 C 297.792969 404.296875 297.792969 404.292969 297.792969 404.285156 C 297.808594 404.246094 297.792969 404.203125 297.789062 404.164062 C 297.785156 404.117188 297.757812 404.066406 297.785156 404.027344 C 297.816406 403.984375 297.773438 403.957031 297.769531 403.917969 C 297.761719 403.714844 297.734375 403.488281 297.734375 403.304688 C 297.742188 403.289062 297.722656 403.265625 297.730469 403.25 C 297.738281 403.246094 297.75 403.246094 297.761719 403.253906 C 297.765625 403.253906 297.773438 403.257812 297.777344 403.265625 C 297.78125 403.265625 297.78125 403.269531 297.78125 403.273438 L 297.820312 403.285156 C 297.875 403.300781 297.941406 403.308594 297.992188 403.234375 C 298.09375 403.257812 298.191406 403.183594 298.292969 403.171875 C 298.414062 403.160156 298.546875 403.214844 298.660156 403.117188 C 298.667969 403.113281 298.679688 403.117188 298.683594 403.125 C 298.710938 403.183594 298.742188 403.144531 298.773438 403.15625 C 298.867188 403.183594 298.953125 403.113281 299.039062 403.078125 C 299.078125 403.0625 299.125 403.042969 299.164062 403.027344 C 299.191406 403.015625 299.214844 402.984375 299.234375 402.957031 C 299.261719 402.914062 299.25 402.851562 299.222656 402.792969 C 299.152344 402.667969 299.078125 402.65625 299.003906 402.65625 C 298.871094 402.660156 298.742188 402.664062 298.609375 402.691406 C 298.476562 402.71875 298.339844 402.621094 298.207031 402.703125 C 298.199219 402.710938 298.191406 402.710938 298.183594 402.703125 C 298.160156 402.691406 298.136719 402.664062 298.113281 402.667969 C 298.085938 402.671875 298.058594 402.703125 298.03125 402.710938 C 297.996094 402.71875 297.945312 402.691406 297.925781 402.726562 C 297.882812 402.796875 297.828125 402.789062 297.785156 402.769531 C 297.75 402.746094 297.648438 402.746094 297.566406 402.757812 C 297.480469 402.769531 297.402344 402.78125 297.3125 402.789062 C 297.277344 402.789062 297.238281 402.796875 297.203125 402.800781 C 297.175781 402.796875 297.183594 402.824219 297.1875 402.839844 L 297.191406 402.898438 C 297.195312 402.972656 297.191406 403.035156 297.160156 403.101562 C 297.148438 403.125 297.152344 403.1875 297.171875 403.207031 C 297.230469 403.261719 297.214844 403.324219 297.214844 403.359375 C 297.222656 403.464844 297.25 403.574219 297.234375 403.679688 C 297.214844 403.78125 297.347656 403.871094 297.257812 403.976562 C 297.25 403.984375 297.25 403.996094 297.257812 404 C 297.335938 404.023438 297.304688 404.066406 297.304688 404.101562 C 297.3125 404.164062 297.316406 404.226562 297.285156 404.289062 C 297.253906 404.355469 297.289062 404.425781 297.285156 404.496094 C 297.285156 404.558594 297.257812 404.628906 297.257812 404.691406 C 297.257812 404.78125 297.269531 404.867188 297.277344 404.957031 C 297.277344 404.988281 297.277344 405.019531 297.3125 405.050781 C 297.347656 405.082031 297.351562 405.132812 297.308594 405.179688 C 297.300781 405.191406 297.285156 405.207031 297.292969 405.210938 C 297.367188 405.238281 297.339844 405.285156 297.339844 405.324219 C 297.339844 405.367188 297.378906 405.398438 297.386719 405.4375 C 297.402344 405.496094 297.382812 405.5625 297.367188 405.625 C 297.34375 405.710938 297.359375 405.800781 297.378906 405.886719 C 297.390625 405.925781 297.378906 405.96875 297.375 406.007812 C 297.371094 406.03125 297.367188 406.050781 297.367188 406.070312 C 297.367188 406.082031 297.367188 406.085938 297.371094 406.105469 C 297.375 406.125 297.375 406.148438 297.382812 406.164062 C 297.429688 406.324219 297.410156 406.511719 297.425781 406.691406 L 297.464844 406.683594 C 297.660156 406.65625 297.859375 406.613281 298.023438 406.585938 C 298.128906 406.570312 298.234375 406.570312 298.339844 406.550781 C 298.378906 406.542969 298.425781 406.613281 298.445312 406.582031 C 298.484375 406.515625 298.527344 406.542969 298.574219 406.535156 C 298.6875 406.515625 298.800781 406.511719 298.914062 406.5 C 299.042969 406.484375 299.171875 406.464844 299.300781 406.460938 C 299.390625 406.457031 299.453125 406.367188 299.523438 406.304688 C 299.527344 406.300781 299.53125 406.289062 299.53125 406.277344 C 299.554688 406.210938 299.488281 406.046875 299.453125 406.050781 Z M 303.558594 404.332031 C 303.496094 404.265625 303.527344 404.203125 303.527344 404.140625 L 303.519531 403.632812 L 303.492188 403.0625 C 303.488281 402.929688 303.394531 402.832031 303.332031 402.726562 C 303.324219 402.71875 303.3125 402.710938 303.300781 402.710938 C 303.242188 402.691406 303.074219 402.78125 303.082031 402.832031 C 303.089844 402.941406 303.039062 403.054688 303.054688 403.167969 C 303.082031 403.367188 303.085938 403.570312 303.085938 403.773438 C 303.082031 403.976562 303.113281 404.179688 303.050781 404.382812 C 303.019531 404.492188 303.046875 404.613281 303.035156 404.726562 C 303.023438 404.839844 302.992188 404.949219 302.980469 405.058594 C 302.96875 405.144531 302.964844 405.234375 302.96875 405.324219 C 302.96875 405.367188 302.976562 405.40625 302.980469 405.449219 L 302.988281 405.515625 L 302.992188 405.546875 C 302.992188 405.554688 302.992188 405.554688 302.992188 405.554688 C 302.996094 405.582031 303 405.609375 302.980469 405.625 C 302.96875 405.636719 302.945312 405.632812 302.933594 405.628906 C 302.929688 405.632812 302.898438 405.679688 302.90625 405.652344 C 302.910156 405.621094 302.914062 405.609375 302.914062 405.601562 C 302.914062 405.589844 302.898438 405.59375 302.894531 405.585938 C 302.835938 405.476562 302.707031 405.371094 302.613281 405.265625 C 302.453125 405.089844 302.316406 404.890625 302.179688 404.695312 C 302.042969 404.5 301.859375 404.332031 301.777344 404.09375 C 301.761719 404.039062 301.707031 403.996094 301.671875 403.945312 C 301.628906 403.890625 301.566406 403.847656 301.554688 403.785156 C 301.550781 403.75 301.53125 403.730469 301.511719 403.714844 C 301.492188 403.695312 301.476562 403.691406 301.441406 403.644531 C 301.359375 403.539062 301.277344 403.414062 301.191406 403.316406 C 301.101562 403.21875 301.027344 403.195312 300.953125 403.171875 C 300.867188 403.148438 300.746094 403.164062 300.65625 403.21875 C 300.558594 403.277344 300.519531 403.339844 300.484375 403.414062 C 300.460938 403.472656 300.4375 403.539062 300.441406 403.632812 L 300.453125 404.191406 C 300.453125 404.316406 300.445312 404.445312 300.417969 404.570312 C 300.394531 404.65625 300.382812 404.753906 300.457031 404.839844 C 300.429688 404.992188 300.503906 405.136719 300.507812 405.289062 C 300.515625 405.46875 300.460938 405.648438 300.550781 405.824219 C 300.558594 405.832031 300.550781 405.847656 300.542969 405.855469 C 300.484375 405.890625 300.519531 405.933594 300.511719 405.976562 C 300.480469 406.109375 300.542969 406.234375 300.570312 406.359375 C 300.582031 406.421875 300.597656 406.484375 300.609375 406.546875 C 300.617188 406.585938 300.644531 406.625 300.671875 406.660156 C 300.710938 406.707031 300.773438 406.710938 300.835938 406.675781 C 300.96875 406.601562 300.988281 406.488281 300.992188 406.375 C 301 406.175781 301.003906 405.972656 300.984375 405.777344 C 300.960938 405.578125 301.0625 405.378906 300.980469 405.1875 C 300.976562 405.175781 300.980469 405.164062 300.980469 405.152344 C 300.996094 405.117188 301.023438 405.082031 301.019531 405.050781 C 301.015625 405.007812 300.988281 404.972656 300.980469 404.929688 C 300.96875 404.882812 301 404.816406 300.96875 404.785156 C 300.902344 404.71875 300.914062 404.640625 300.9375 404.582031 C 300.992188 404.445312 300.957031 404.3125 300.96875 404.175781 C 300.972656 404.144531 300.972656 404.117188 300.96875 404.085938 C 300.96875 404.0625 300.964844 404.011719 300.964844 404.019531 C 300.964844 404.011719 300.96875 403.996094 301.007812 404.023438 L 301.015625 404.023438 C 301.019531 404.03125 301.015625 404.027344 301 404.011719 C 300.945312 403.960938 300.96875 403.96875 300.96875 403.960938 C 300.953125 403.933594 300.996094 403.878906 301.015625 403.949219 C 301.023438 403.976562 301.027344 403.941406 301.046875 403.9375 C 301.0625 403.933594 301.085938 403.953125 301.058594 403.996094 C 301.058594 404.007812 301.070312 404.023438 301.078125 404.023438 C 301.164062 404.011719 301.171875 404.078125 301.203125 404.121094 C 301.257812 404.195312 301.3125 404.261719 301.339844 404.359375 C 301.367188 404.453125 301.457031 404.519531 301.511719 404.605469 C 301.5625 404.683594 301.597656 404.777344 301.648438 404.855469 C 301.71875 404.960938 301.796875 405.0625 301.878906 405.160156 C 301.910156 405.195312 301.929688 405.234375 301.988281 405.257812 C 302.042969 405.277344 302.089844 405.335938 302.089844 405.414062 C 302.089844 405.429688 302.097656 405.457031 302.101562 405.457031 C 302.1875 405.453125 302.203125 405.523438 302.234375 405.570312 C 302.269531 405.621094 302.328125 405.640625 302.371094 405.679688 C 302.402344 405.714844 302.425781 405.75 302.449219 405.792969 C 302.476562 405.839844 302.476562 405.855469 302.527344 405.945312 C 302.558594 405.992188 302.585938 406.042969 302.621094 406.09375 C 302.734375 406.242188 302.851562 406.289062 302.996094 406.292969 C 303.164062 406.292969 303.378906 406.242188 303.445312 406.058594 C 303.464844 405.933594 303.472656 405.808594 303.5 405.6875 L 303.511719 405.527344 C 303.515625 405.488281 303.519531 405.449219 303.519531 405.414062 C 303.519531 405.261719 303.5 405.109375 303.5 404.957031 C 303.5 404.800781 303.515625 404.644531 303.507812 404.488281 C 303.511719 404.425781 303.589844 404.367188 303.558594 404.332031 Z M 244.859375 336.300781 C 244.546875 340 240.941406 338.65625 240.308594 338.496094 C 239.671875 338.335938 238.042969 340.4375 240.964844 341.398438 C 243.890625 342.359375 247.273438 340.71875 248.480469 337.605469 C 249.683594 334.492188 246.269531 331.277344 243.738281 330.332031 C 241.222656 329.222656 241.597656 327.128906 244.839844 326.945312 C 246.882812 326.964844 247.414062 324.863281 246.132812 324.171875 C 242.519531 322.972656 237.328125 325.660156 238.765625 330.472656 C 239.914062 333.476562 245.175781 332.601562 244.859375 336.300781 Z M 256 339.566406 C 256.207031 338.96875 256.21875 336.679688 256.148438 334.144531 L 262.070312 334.015625 C 262.105469 336.820312 262.285156 339.285156 262.644531 339.726562 C 263.496094 340.777344 264.457031 340.890625 264.914062 339.199219 C 265.371094 337.503906 265.71875 327.386719 265.214844 325.792969 C 264.710938 324.199219 263.53125 323.15625 262.648438 324.945312 C 262.363281 325.53125 262.167969 328.03125 262.097656 330.816406 C 260.367188 330.917969 257.402344 331.175781 256.042969 331.1875 C 255.925781 328.625 255.777344 326.382812 255.707031 326.003906 C 255.414062 324.421875 253.035156 322.660156 252.429688 325.546875 C 252.265625 326.347656 252.480469 339.277344 253.316406 340.867188 C 254.152344 342.453125 255.503906 341.003906 256 339.566406 Z M 285.019531 340.753906 C 284.183594 338.242188 284.441406 326.539062 285.417969 324.695312 C 285.90625 324.03125 293.4375 322.273438 294.414062 328.476562 C 295.207031 333.515625 290.15625 335.972656 287.574219 336.273438 C 287.585938 338.0625 287.441406 337.878906 287.546875 338.878906 C 287.855469 341.800781 285.957031 342.285156 285.019531 340.753906 Z M 287.582031 333.089844 C 288.871094 332.667969 291.199219 331.585938 291.230469 329.320312 C 291.269531 326.683594 288.683594 327.257812 287.667969 327.527344 C 287.636719 328.9375 287.597656 330.984375 287.582031 333.089844 Z M 268.175781 337.410156 C 266.351562 332.992188 267.761719 323.675781 274.460938 323.738281 C 280.035156 323.785156 282.726562 333.234375 279.765625 338.3125 C 276.800781 343.386719 270.425781 342.847656 268.175781 337.410156 Z M 271.550781 335.269531 C 273.15625 340.054688 276.292969 338.917969 277.4375 335.066406 C 278.582031 331.214844 276.941406 327.652344 275.097656 327.21875 C 273.253906 326.789062 269.425781 328.9375 271.550781 335.269531 Z M 271.550781 335.269531 " fill-opacity="1" fill-rule="nonzero"/><g clip-path="url(#d1a3f4848c)"><path fill="#5ba698" d="M 338.128906 437.296875 C 367.167969 423.953125 399.546875 428.839844 430.148438 432.375 C 453.109375 434.964844 476.324219 437.046875 499.34375 433.984375 C 507 433.027344 514.59375 431.527344 522.136719 429.722656 C 512.964844 432.878906 503.449219 435.15625 493.832031 436.570312 C 472.585938 439.710938 451.003906 438.066406 429.777344 435.738281 C 399.035156 432.101562 368.183594 426.605469 338.128906 437.296875 Z M 338.128906 437.296875 " fill-opacity="1" fill-rule="nonzero"/></g><g fill="#5ba698" fill-opacity="1"><g transform="translate(344.511315, 398.25)"><g><path d="M 14.828125 0.390625 C 12.328125 0.390625 10.125 -0.128906 8.21875 -1.171875 C 6.3125 -2.210938 4.820312 -3.773438 3.75 -5.859375 C 2.675781 -7.941406 2.140625 -10.507812 2.140625 -13.5625 C 2.140625 -16.613281 2.675781 -19.179688 3.75 -21.265625 C 4.820312 -23.359375 6.3125 -24.921875 8.21875 -25.953125 C 10.125 -26.992188 12.328125 -27.515625 14.828125 -27.515625 C 17.429688 -27.515625 19.644531 -27.003906 21.46875 -25.984375 C 23.300781 -24.960938 24.609375 -23.40625 25.390625 -21.3125 L 21.46875 -18.921875 L 21 -18.9375 C 20.414062 -20.351562 19.625 -21.363281 18.625 -21.96875 C 17.632812 -22.582031 16.367188 -22.890625 14.828125 -22.890625 C 12.578125 -22.890625 10.816406 -22.144531 9.546875 -20.65625 C 8.285156 -19.164062 7.65625 -16.800781 7.65625 -13.5625 C 7.65625 -10.332031 8.285156 -7.972656 9.546875 -6.484375 C 10.816406 -4.992188 12.578125 -4.25 14.828125 -4.25 C 18.347656 -4.25 20.503906 -5.960938 21.296875 -9.390625 L 21.765625 -9.390625 L 25.71875 -7.328125 C 24.976562 -4.753906 23.707031 -2.820312 21.90625 -1.53125 C 20.113281 -0.25 17.753906 0.390625 14.828125 0.390625 Z M 14.828125 0.390625 "/></g></g></g><g fill="#5ba698" fill-opacity="1"><g transform="translate(371.113265, 398.25)"><g><path d="M 21.046875 -16.921875 L 21.046875 -27.125 L 26.390625 -27.125 L 26.390625 0 L 21.046875 0 L 21.046875 -12.359375 L 8.890625 -12.359375 L 8.890625 0 L 3.53125 0 L 3.53125 -27.125 L 8.890625 -27.125 L 8.890625 -16.921875 Z M 21.046875 -16.921875 "/></g></g></g><g fill="#5ba698" fill-opacity="1"><g transform="translate(401.035822, 398.25)"><g><path d="M 3.53125 0 L 3.53125 -27.125 L 14.421875 -27.125 C 17.222656 -27.125 19.335938 -26.476562 20.765625 -25.1875 C 22.203125 -23.894531 22.921875 -22.109375 22.921875 -19.828125 C 22.921875 -18.191406 22.5 -16.847656 21.65625 -15.796875 C 20.820312 -14.742188 19.578125 -13.9375 17.921875 -13.375 L 17.921875 -12.984375 C 18.773438 -12.617188 19.460938 -12.070312 19.984375 -11.34375 C 20.515625 -10.613281 21.015625 -9.53125 21.484375 -8.09375 L 24.203125 0 L 18.6875 0 L 16.03125 -8.109375 C 15.757812 -8.921875 15.453125 -9.550781 15.109375 -10 C 14.773438 -10.457031 14.34375 -10.785156 13.8125 -10.984375 C 13.289062 -11.191406 12.609375 -11.296875 11.765625 -11.296875 L 8.890625 -11.296875 L 8.890625 0 Z M 13.765625 -15.546875 C 16.367188 -15.546875 17.671875 -16.757812 17.671875 -19.1875 C 17.671875 -21.644531 16.367188 -22.875 13.765625 -22.875 L 8.890625 -22.875 L 8.890625 -15.546875 Z M 13.765625 -15.546875 "/></g></g></g><g fill="#5ba698" fill-opacity="1"><g transform="translate(426.394863, 398.25)"><g><path d="M 8.890625 0 L 3.53125 0 L 3.53125 -27.125 L 8.890625 -27.125 Z M 8.890625 0 "/></g></g></g><g fill="#5ba698" fill-opacity="1"><g transform="translate(438.823947, 398.25)"><g><path d="M 21.046875 -16.921875 L 21.046875 -27.125 L 26.390625 -27.125 L 26.390625 0 L 21.046875 0 L 21.046875 -12.359375 L 8.890625 -12.359375 L 8.890625 0 L 3.53125 0 L 3.53125 -27.125 L 8.890625 -27.125 L 8.890625 -16.921875 Z M 21.046875 -16.921875 "/></g></g></g><g fill="#000000" fill-opacity="1"><g transform="translate(440.286341, 417.700019)"><g><path d="M 3.671875 0.140625 C 3.160156 0.140625 2.753906 -0.00390625 2.453125 -0.296875 C 2.148438 -0.585938 2 -0.976562 2 -1.46875 C 2 -1.9375 2.148438 -2.320312 2.453125 -2.625 C 2.753906 -2.9375 3.160156 -3.09375 3.671875 -3.09375 C 4.203125 -3.09375 4.617188 -2.945312 4.921875 -2.65625 C 5.222656 -2.363281 5.375 -1.972656 5.375 -1.484375 C 5.375 -1.003906 5.21875 -0.613281 4.90625 -0.3125 C 4.601562 -0.0078125 4.191406 0.140625 3.671875 0.140625 Z M 3.671875 0.140625 "/></g></g></g><g fill="#000000" fill-opacity="1"><g transform="translate(447.654459, 417.700019)"><g><path d="M 2.625 0 L 2.625 -15.078125 L 4.75 -15.078125 L 4.75 -12.859375 L 5.03125 -12.796875 C 5.539062 -13.640625 6.15625 -14.28125 6.875 -14.71875 C 7.601562 -15.15625 8.472656 -15.375 9.484375 -15.375 C 10.648438 -15.375 11.550781 -15.148438 12.1875 -14.703125 C 12.832031 -14.265625 13.332031 -13.550781 13.6875 -12.5625 L 13.96875 -12.5625 C 14.488281 -13.488281 15.128906 -14.1875 15.890625 -14.65625 C 16.648438 -15.132812 17.585938 -15.375 18.703125 -15.375 C 20.253906 -15.375 21.410156 -14.953125 22.171875 -14.109375 C 22.929688 -13.273438 23.3125 -12 23.3125 -10.28125 L 23.3125 0 L 21.078125 0 L 21.078125 -10.234375 C 21.078125 -11.328125 20.847656 -12.128906 20.390625 -12.640625 C 19.929688 -13.160156 19.191406 -13.421875 18.171875 -13.421875 C 16.960938 -13.421875 15.976562 -12.984375 15.21875 -12.109375 C 14.457031 -11.234375 14.078125 -9.796875 14.078125 -7.796875 L 14.078125 0 L 11.859375 0 L 11.859375 -10.234375 C 11.859375 -11.328125 11.625 -12.128906 11.15625 -12.640625 C 10.695312 -13.160156 9.957031 -13.421875 8.9375 -13.421875 C 7.738281 -13.421875 6.757812 -13 6 -12.15625 C 5.238281 -11.3125 4.859375 -9.9375 4.859375 -8.03125 L 4.859375 0 Z M 2.625 0 "/></g></g></g><g fill="#000000" fill-opacity="1"><g transform="translate(473.353997, 417.700019)"><g><path d="M 6.21875 0.28125 C 4.738281 0.28125 3.578125 -0.101562 2.734375 -0.875 C 1.898438 -1.644531 1.484375 -2.753906 1.484375 -4.203125 C 1.484375 -5.085938 1.664062 -5.835938 2.03125 -6.453125 C 2.40625 -7.078125 2.976562 -7.582031 3.75 -7.96875 C 4.53125 -8.351562 5.546875 -8.648438 6.796875 -8.859375 C 7.890625 -9.046875 8.71875 -9.25 9.28125 -9.46875 C 9.851562 -9.695312 10.238281 -9.953125 10.4375 -10.234375 C 10.632812 -10.523438 10.734375 -10.882812 10.734375 -11.3125 C 10.734375 -11.988281 10.5 -12.507812 10.03125 -12.875 C 9.5625 -13.238281 8.804688 -13.421875 7.765625 -13.421875 C 6.785156 -13.421875 5.945312 -13.234375 5.25 -12.859375 C 4.5625 -12.484375 3.925781 -11.921875 3.34375 -11.171875 L 3.0625 -11.171875 L 1.96875 -12.71875 C 2.601562 -13.53125 3.410156 -14.175781 4.390625 -14.65625 C 5.378906 -15.132812 6.503906 -15.375 7.765625 -15.375 C 9.546875 -15.375 10.859375 -14.984375 11.703125 -14.203125 C 12.546875 -13.421875 12.96875 -12.34375 12.96875 -10.96875 L 12.96875 -2.96875 C 12.96875 -2.125 13.320312 -1.703125 14.03125 -1.703125 C 14.269531 -1.703125 14.5 -1.742188 14.71875 -1.828125 L 14.90625 -1.78125 L 15.15625 -0.234375 C 15 -0.117188 14.785156 -0.0351562 14.515625 0.015625 C 14.242188 0.078125 13.96875 0.109375 13.6875 0.109375 C 12.851562 0.109375 12.222656 -0.0703125 11.796875 -0.4375 C 11.378906 -0.800781 11.113281 -1.335938 11 -2.046875 L 10.703125 -2.078125 C 10.273438 -1.285156 9.695312 -0.691406 8.96875 -0.296875 C 8.238281 0.0859375 7.320312 0.28125 6.21875 0.28125 Z M 6.71875 -1.484375 C 7.550781 -1.484375 8.273438 -1.675781 8.890625 -2.0625 C 9.503906 -2.457031 9.972656 -3.003906 10.296875 -3.703125 C 10.628906 -4.410156 10.796875 -5.222656 10.796875 -6.140625 L 10.796875 -8.046875 L 10.546875 -8.109375 C 10.203125 -7.867188 9.789062 -7.671875 9.3125 -7.515625 C 8.832031 -7.359375 8.15625 -7.210938 7.28125 -7.078125 C 6.40625 -6.960938 5.710938 -6.78125 5.203125 -6.53125 C 4.691406 -6.289062 4.328125 -5.976562 4.109375 -5.59375 C 3.890625 -5.21875 3.78125 -4.753906 3.78125 -4.203125 C 3.78125 -3.316406 4.035156 -2.640625 4.546875 -2.171875 C 5.066406 -1.710938 5.789062 -1.484375 6.71875 -1.484375 Z M 6.71875 -1.484375 "/></g></g></g></svg>